<?xml version="1.0" encoding="UTF-8" standalone="no"?>
<!-- Created with Inkscape (http://www.inkscape.org/) -->

<svg
   xmlns:dc="http://purl.org/dc/elements/1.1/"
   xmlns:cc="http://creativecommons.org/ns#"
   xmlns:rdf="http://www.w3.org/1999/02/22-rdf-syntax-ns#"
   xmlns:svg="http://www.w3.org/2000/svg"
   xmlns="http://www.w3.org/2000/svg"
   xmlns:sodipodi="http://sodipodi.sourceforge.net/DTD/sodipodi-0.dtd"
   xmlns:inkscape="http://www.inkscape.org/namespaces/inkscape"
   width="6.6426501mm"
   height="6.6424971mm"
   viewBox="0 0 6.6426501 6.6424971"
   version="1.1"
   id="svg1581"
   inkscape:version="0.92.4 (5da689c313, 2019-01-14)"
   sodipodi:docname="add-cart.svg">
  <defs
     id="defs1575" />
  <sodipodi:namedview
     id="base"
     pagecolor="#ffffff"
     bordercolor="#666666"
     borderopacity="1.0"
     inkscape:pageopacity="0.0"
     inkscape:pageshadow="2"
     inkscape:zoom="0.35"
     inkscape:cx="909.69554"
     inkscape:cy="-384.59011"
     inkscape:document-units="mm"
     inkscape:current-layer="layer1"
     showgrid="false"
     fit-margin-top="0"
     fit-margin-left="0"
     fit-margin-right="0"
     fit-margin-bottom="0"
     inkscape:window-width="1920"
     inkscape:window-height="1022"
     inkscape:window-x="0"
     inkscape:window-y="22"
     inkscape:window-maximized="1" />
  <metadata
     id="metadata1578">
    <rdf:RDF>
      <cc:Work
         rdf:about="">
        <dc:format>image/svg+xml</dc:format>
        <dc:type
           rdf:resource="http://purl.org/dc/dcmitype/StillImage" />
        <dc:title></dc:title>
      </cc:Work>
    </rdf:RDF>
  </metadata>
  <g
     inkscape:label="Layer 1"
     inkscape:groupmode="layer"
     id="layer1"
     transform="translate(282.26766,-40.434704)">
    <path
       inkscape:connector-curvature="0"
       style="fill:#364f6b;fill-opacity:1;stroke-width:0.33211342"
       d="m -282.26766,40.434704 v 0.664554 h 0.66455 l 1.19528,2.520791 -0.45164,0.813382 c -0.0498,0.09298 -0.0796,0.202539 -0.0796,0.31885 a 0.6642268,0.6642268 0 0 0 0.66405,0.664024 h 3.98579 v -0.664024 h -3.84627 a 0.08302834,0.08302834 0 0 1 -0.0827,-0.08321 c 0,-0.01667 0.004,-0.02955 0.01,-0.03979 l 0.29868,-0.541047 h 2.47428 c 0.24905,0 0.4685,-0.139515 0.58137,-0.342106 l 1.18906,-2.148708 c 0.0233,-0.05313 0.0398,-0.109908 0.0398,-0.166396 a 0.33211339,0.33211339 0 0 0 -0.33229,-0.331761 h -4.91183 l -0.31213,-0.664554 z m 3.7424,1.058862 h 0.14988 c 0.10531,0 0.19016,0.08483 0.19016,0.190156 v 0.629947 h 0.63045 c 0.1053,0 0.19018,0.0843 0.19018,0.189653 v 0.150363 c 0,0.105304 -0.0849,0.189653 -0.19018,0.189653 h -0.63045 v 0.630449 c 0,0.105357 -0.0848,0.190183 -0.19016,0.190183 h -0.14988 c -0.10528,0 -0.19016,-0.08483 -0.19016,-0.190183 v -0.630449 h -0.63045 c -0.1053,0 -0.18965,-0.08435 -0.18965,-0.189653 v -0.150363 c 0,-0.105357 0.0844,-0.189653 0.18965,-0.189653 h 0.63045 v -0.629947 c 0,-0.10533 0.0849,-0.190156 0.19016,-0.190156 z m -1.74975,4.25503 c -0.36867,0 -0.66405,0.29538 -0.66405,0.664051 a 0.6642268,0.6642268 0 0 0 0.66405,0.664554 0.6642268,0.6642268 0 0 0 0.66456,-0.664554 c 0,-0.368671 -0.29927,-0.664051 -0.66456,-0.664051 z m 3.32124,0 c -0.36865,0 -0.66405,0.29538 -0.66405,0.664051 a 0.6642268,0.6642268 0 0 0 0.66405,0.664554 0.6642268,0.6642268 0 0 0 0.66455,-0.664554 c 0,-0.368671 -0.29922,-0.664051 -0.66455,-0.664051 z"
       id="path1554" />
  </g>
</svg>
