<?xml version="1.0" encoding="UTF-8" standalone="no"?>
<svg
   xmlns:dc="http://purl.org/dc/elements/1.1/"
   xmlns:cc="http://creativecommons.org/ns#"
   xmlns:rdf="http://www.w3.org/1999/02/22-rdf-syntax-ns#"
   xmlns:svg="http://www.w3.org/2000/svg"
   xmlns="http://www.w3.org/2000/svg"
   xmlns:sodipodi="http://sodipodi.sourceforge.net/DTD/sodipodi-0.dtd"
   xmlns:inkscape="http://www.inkscape.org/namespaces/inkscape"
   version="1.1"
   width="20"
   height="20"
   viewBox="0 0 20 20"
   id="svg4"
   sodipodi:docname="cart-outline.svg"
   inkscape:version="0.92.4 (5da689c313, 2019-01-14)">
  <metadata
     id="metadata10">
    <rdf:RDF>
      <cc:Work
         rdf:about="">
        <dc:format>image/svg+xml</dc:format>
        <dc:type
           rdf:resource="http://purl.org/dc/dcmitype/StillImage" />
        <dc:title></dc:title>
      </cc:Work>
    </rdf:RDF>
  </metadata>
  <defs
     id="defs8" />
  <sodipodi:namedview
     pagecolor="#ffffff"
     bordercolor="#666666"
     borderopacity="1"
     objecttolerance="10"
     gridtolerance="10"
     guidetolerance="10"
     inkscape:pageopacity="0"
     inkscape:pageshadow="2"
     inkscape:window-width="810"
     inkscape:window-height="480"
     id="namedview6"
     showgrid="false"
     fit-margin-top="0"
     fit-margin-left="0"
     fit-margin-right="0"
     fit-margin-bottom="0"
     inkscape:zoom="9.8333333"
     inkscape:cx="11"
     inkscape:cy="10"
     inkscape:window-x="0"
     inkscape:window-y="22"
     inkscape:window-maximized="0"
     inkscape:current-layer="svg4" />
  <path
     d="m 16,16 a 2,2 0 0 1 2,2 2,2 0 0 1 -2,2 c -1.11,0 -2,-0.9 -2,-2 0,-1.11 0.89,-2 2,-2 M 0,0 H 3.27 L 4.21,2 H 19 a 1,1 0 0 1 1,1 c 0,0.17 -0.05,0.34 -0.12,0.5 L 16.3,9.97 C 15.96,10.58 15.3,11 14.55,11 H 7.1 L 6.2,12.63 6.17,12.75 A 0.25,0.25 0 0 0 6.42,13 H 18 v 2 H 6 C 4.89,15 4,14.1 4,13 4,12.65 4.09,12.32 4.24,12.04 L 5.6,9.59 2,2 H 0 V 0 m 6,16 a 2,2 0 0 1 2,2 2,2 0 0 1 -2,2 C 4.89,20 4,19.1 4,18 4,16.89 4.89,16 6,16 M 15,9 17.78,4 H 5.14 L 7.5,9 Z"
     id="path2"
     style="fill:#364f6b;fill-opacity:1"
     inkscape:connector-curvature="0" />
</svg>
