<?xml version="1.0" encoding="UTF-8" standalone="no"?>
<!-- Created with Inkscape (http://www.inkscape.org/) -->

<svg
   xmlns:dc="http://purl.org/dc/elements/1.1/"
   xmlns:cc="http://creativecommons.org/ns#"
   xmlns:rdf="http://www.w3.org/1999/02/22-rdf-syntax-ns#"
   xmlns:svg="http://www.w3.org/2000/svg"
   xmlns="http://www.w3.org/2000/svg"
   xmlns:sodipodi="http://sodipodi.sourceforge.net/DTD/sodipodi-0.dtd"
   xmlns:inkscape="http://www.inkscape.org/namespaces/inkscape"
   width="6.6423502mm"
   height="6.6423101mm"
   viewBox="0 0 6.6423501 6.6423102"
   version="1.1"
   id="svg633"
   inkscape:version="0.92.4 (5da689c313, 2019-01-14)"
   sodipodi:docname="cart.svg">
  <defs
     id="defs627" />
  <sodipodi:namedview
     id="base"
     pagecolor="#ffffff"
     bordercolor="#666666"
     borderopacity="1.0"
     inkscape:pageopacity="0.0"
     inkscape:pageshadow="2"
     inkscape:zoom="2.8"
     inkscape:cx="9.8479685"
     inkscape:cy="12.970021"
     inkscape:document-units="mm"
     inkscape:current-layer="layer1"
     showgrid="false"
     fit-margin-top="0"
     fit-margin-left="0"
     fit-margin-right="0"
     fit-margin-bottom="0"
     inkscape:window-width="487"
     inkscape:window-height="421"
     inkscape:window-x="964"
     inkscape:window-y="171"
     inkscape:window-maximized="0" />
  <metadata
     id="metadata630">
    <rdf:RDF>
      <cc:Work
         rdf:about="">
        <dc:format>image/svg+xml</dc:format>
        <dc:type
           rdf:resource="http://purl.org/dc/dcmitype/StillImage" />
        <dc:title></dc:title>
      </cc:Work>
    </rdf:RDF>
  </metadata>
  <g
     inkscape:label="Layer 1"
     inkscape:groupmode="layer"
     id="layer1"
     transform="translate(-111.0047,-110.60915)">
    <path
       id="path5198"
       d="m 116.31852,115.92297 c -0.36864,0 -0.66421,0.29557 -0.66421,0.66424 a 0.6642268,0.6642268 0 0 0 0.66421,0.66424 0.6642268,0.6642268 0 0 0 0.66424,-0.66424 c 0,-0.36867 -0.2989,-0.66424 -0.66424,-0.66424 m -5.31382,-5.31382 v 0.66427 h 0.66424 l 1.19563,2.52072 -0.45172,0.81365 c -0.0498,0.093 -0.0797,0.20258 -0.0797,0.31888 a 0.6642268,0.6642268 0 0 0 0.66424,0.66421 h 3.98537 v -0.66421 h -3.8459 a 0.08302834,0.08302834 0 0 1 -0.083,-0.083 c 0,-0.0166 0.004,-0.0296 0.01,-0.0399 l 0.29884,-0.54133 h 2.4743 c 0.24906,0 0.46829,-0.13953 0.58115,-0.34211 l 1.189,-2.14875 c 0.0234,-0.0532 0.0399,-0.10959 0.0399,-0.16606 a 0.33211339,0.33211339 0 0 0 -0.33214,-0.33209 h -4.91194 l -0.31219,-0.66427 m 0.90669,5.31382 c -0.36867,0 -0.66421,0.29557 -0.66421,0.66424 a 0.6642268,0.6642268 0 0 0 0.66421,0.66424 0.6642268,0.6642268 0 0 0 0.66424,-0.66424 c 0,-0.36867 -0.29896,-0.66424 -0.66424,-0.66424 z"
       inkscape:connector-curvature="0"
       style="fill:#fc5185;fill-opacity:1;stroke-width:0.33211342" />
  </g>
</svg>
