<?xml version="1.0" encoding="UTF-8" standalone="no"?>
<!-- Created with Inkscape (http://www.inkscape.org/) -->

<svg
   xmlns:dc="http://purl.org/dc/elements/1.1/"
   xmlns:cc="http://creativecommons.org/ns#"
   xmlns:rdf="http://www.w3.org/1999/02/22-rdf-syntax-ns#"
   xmlns:svg="http://www.w3.org/2000/svg"
   xmlns="http://www.w3.org/2000/svg"
   xmlns:sodipodi="http://sodipodi.sourceforge.net/DTD/sodipodi-0.dtd"
   xmlns:inkscape="http://www.inkscape.org/namespaces/inkscape"
   width="5.7322049mm"
   height="4.7624998mm"
   viewBox="0 0 5.7322048 4.7624998"
   version="1.1"
   id="svg1614"
   inkscape:version="0.92.4 (5da689c313, 2019-01-14)"
   sodipodi:docname="shirt.svg">
  <defs
     id="defs1608" />
  <sodipodi:namedview
     id="base"
     pagecolor="#ffffff"
     bordercolor="#666666"
     borderopacity="1.0"
     inkscape:pageopacity="0.0"
     inkscape:pageshadow="2"
     inkscape:zoom="6.6609375"
     inkscape:cx="-2.6727002"
     inkscape:cy="12.425842"
     inkscape:document-units="mm"
     inkscape:current-layer="layer1"
     showgrid="false"
     fit-margin-top="0"
     fit-margin-left="0"
     fit-margin-right="0"
     fit-margin-bottom="0"
     inkscape:window-width="1609"
     inkscape:window-height="774"
     inkscape:window-x="47"
     inkscape:window-y="69"
     inkscape:window-maximized="0" />
  <metadata
     id="metadata1611">
    <rdf:RDF>
      <cc:Work
         rdf:about="">
        <dc:format>image/svg+xml</dc:format>
        <dc:type
           rdf:resource="http://purl.org/dc/dcmitype/StillImage" />
        <dc:title></dc:title>
      </cc:Work>
    </rdf:RDF>
  </metadata>
  <g
     inkscape:label="Layer 1"
     inkscape:groupmode="layer"
     id="layer1"
     transform="translate(217.01177,-16.874651)">
    <path
       id="path816"
       d="m -213.08734,21.637151 h -2.11666 a 0.26458333,0.26458333 0 0 1 -0.26459,-0.264583 v -2.098146 l -0.34396,0.264583 c -0.10318,0.103188 -0.26987,0.103188 -0.37306,0 l -0.74877,-0.735542 c -0.10319,-0.103187 -0.10319,-0.269875 0,-0.373062 l 1.55575,-1.55575 h 0.43921 c 0,0.291042 0.35454,0.529167 0.79375,0.529167 0.43921,0 0.79375,-0.238125 0.79375,-0.529167 h 0.43921 l 1.55575,1.55575 c 0.10319,0.103187 0.10319,0.269875 0,0.373062 l -0.74877,0.748771 c -0.10319,0.100542 -0.26988,0.100542 -0.37307,0 l -0.34395,-0.264583 v 2.084917 a 0.26458333,0.26458333 0 0 1 -0.26459,0.264583"
       inkscape:connector-curvature="0"
       style="fill:#fc5185;fill-opacity:1;stroke-width:0.26458332" />
  </g>
</svg>
