<?xml version="1.0" encoding="UTF-8" standalone="no"?>
<svg
   xmlns:dc="http://purl.org/dc/elements/1.1/"
   xmlns:cc="http://creativecommons.org/ns#"
   xmlns:rdf="http://www.w3.org/1999/02/22-rdf-syntax-ns#"
   xmlns:svg="http://www.w3.org/2000/svg"
   xmlns="http://www.w3.org/2000/svg"
   xmlns:sodipodi="http://sodipodi.sourceforge.net/DTD/sodipodi-0.dtd"
   xmlns:inkscape="http://www.inkscape.org/namespaces/inkscape"
   version="1.1"
   width="24"
   height="24"
   viewBox="0 0 24 24"
   id="svg4"
   sodipodi:docname="sombrero.svg"
   inkscape:version="0.92.4 (5da689c313, 2019-01-14)">
  <metadata
     id="metadata10">
    <rdf:RDF>
      <cc:Work
         rdf:about="">
        <dc:format>image/svg+xml</dc:format>
        <dc:type
           rdf:resource="http://purl.org/dc/dcmitype/StillImage" />
        <dc:title></dc:title>
      </cc:Work>
    </rdf:RDF>
  </metadata>
  <defs
     id="defs8" />
  <sodipodi:namedview
     pagecolor="#ffffff"
     bordercolor="#666666"
     borderopacity="1"
     objecttolerance="10"
     gridtolerance="10"
     guidetolerance="10"
     inkscape:pageopacity="0"
     inkscape:pageshadow="2"
     inkscape:window-width="1920"
     inkscape:window-height="1022"
     id="namedview6"
     showgrid="false"
     inkscape:zoom="13.390626"
     inkscape:cx="2.3133118"
     inkscape:cy="16.597657"
     inkscape:window-x="0"
     inkscape:window-y="22"
     inkscape:window-maximized="1"
     inkscape:current-layer="svg4" />
  <path
     style="fill:#fc5185;stroke-width:0.04692273"
     d="m 3.9283521,19.14369 c -0.48439,-0.102839 -0.94671,-0.283114 -1.38211,-0.538941 -0.40618,-0.238655 -1.10621,-0.924517 -1.39388,-1.365684 -0.19587996,-0.300391 -0.50860996,-0.876057 -0.50860996,-0.936247 0,-0.01364 5.10988996,-0.0248 11.35530986,-0.0248 6.24541,0 11.3553,0.01126 11.3553,0.02502 0,0.0615 -0.26749,0.547414 -0.48991,0.889972 -0.62205,0.958039 -1.49705,1.605547 -2.58353,1.911849 l -0.37539,0.105828 -7.78917,0.0088 c -7.3489299,0.0083 -7.8117199,0.0041 -8.1880099,-0.07584 z M 0.22492214,15.069758 c -0.0676,-0.252714 -0.17938,-1.003921 -0.21585,-1.450507 -0.0527,-0.644478 0.12219,-1.026612 0.5737,-1.254028 0.13687,-0.06894 1.14715996,-0.07564 11.41089986,-0.07564 7.04292,0 11.3049,0.01679 11.37864,0.04483 0.24429,0.09288 0.4952,0.376207 0.57439,0.64859 0.0652,0.224365 0.0682,0.335803 0.022,0.822711 -0.0467,0.492243 -0.14615,1.102761 -0.22112,1.357888 -0.0229,0.07792 -0.62298,0.08211 -11.74985,0.08211 H 0.27202214 Z M 6.0424221,11.057313 c 0.14478,-0.77498 1.74265,-4.7160469 2.27658,-5.6150649 0.27181,-0.457677 0.85228,-1.096395 1.25786,-1.384077 0.7261499,-0.515071 1.3582399,-0.728207 2.2684199,-0.764897 0.53034,-0.02138 0.68476,-0.01015 1.06316,0.07729 0.79858,0.184537 1.5108,0.597408 2.12231,1.230303 0.57271,0.592733 0.78352,0.974929 1.6043,2.908641 0.67951,1.600909 1.16197,2.8912299 1.29622,3.4666859 l 0.0655,0.281093 h -5.99589 -5.9958899 z"
     id="path843"
     inkscape:connector-curvature="0" />
</svg>
