<?xml version="1.0" encoding="UTF-8" standalone="no"?>
<svg
   xmlns:dc="http://purl.org/dc/elements/1.1/"
   xmlns:cc="http://creativecommons.org/ns#"
   xmlns:rdf="http://www.w3.org/1999/02/22-rdf-syntax-ns#"
   xmlns:svg="http://www.w3.org/2000/svg"
   xmlns="http://www.w3.org/2000/svg"
   xmlns:sodipodi="http://sodipodi.sourceforge.net/DTD/sodipodi-0.dtd"
   xmlns:inkscape="http://www.inkscape.org/namespaces/inkscape"
   version="1.1"
   width="19.987907"
   height="18"
   viewBox="0 0 19.987907 18"
   id="svg4"
   sodipodi:docname="storefront-outline.svg"
   inkscape:version="0.92.4 (5da689c313, 2019-01-14)">
  <metadata
     id="metadata10">
    <rdf:RDF>
      <cc:Work
         rdf:about="">
        <dc:format>image/svg+xml</dc:format>
        <dc:type
           rdf:resource="http://purl.org/dc/dcmitype/StillImage" />
        <dc:title></dc:title>
      </cc:Work>
    </rdf:RDF>
  </metadata>
  <defs
     id="defs8" />
  <sodipodi:namedview
     pagecolor="#ffffff"
     bordercolor="#666666"
     borderopacity="1"
     objecttolerance="10"
     gridtolerance="10"
     guidetolerance="10"
     inkscape:pageopacity="0"
     inkscape:pageshadow="2"
     inkscape:window-width="808"
     inkscape:window-height="480"
     id="namedview6"
     showgrid="false"
     fit-margin-top="0"
     fit-margin-left="0"
     fit-margin-right="0"
     fit-margin-bottom="0"
     inkscape:zoom="9.8333333"
     inkscape:cx="9.9939533"
     inkscape:cy="9"
     inkscape:window-x="0"
     inkscape:window-y="22"
     inkscape:window-maximized="0"
     inkscape:current-layer="svg4" />
  <path
     d="m 3.0539533,0 c -0.43,0 -0.84,0.14 -1.22,0.42 -0.38,0.28 -0.6,0.64 -0.7,1.08 L 0.10395332,5.91 c -0.25,1.09 -0.05,2.04 0.61,2.86 l 0.28,0.28 V 16 c 0,0.5 0.19999998,1 0.60999998,1.39 0.41,0.39 0.89,0.61 1.39,0.61 H 16.993953 c 0.5,0 1,-0.2 1.39,-0.61 0.39,-0.41 0.61,-0.89 0.61,-1.39 V 9.05 l 0.28,-0.28 c 0.66,-0.82 0.86,-1.77 0.61,-2.86 l -1.03,-4.41 c -0.13,-0.44 -0.36,-0.8 -0.73,-1.08 -0.36,-0.28 -0.75,-0.42 -1.19,-0.42 H 3.0539533 m 13.8299997,1.97 1.08,4.41 c 0.09,0.43 0,0.82 -0.28,1.17 -0.25,0.31 -0.56,0.45 -0.94,0.45 -0.31,0 -0.58,-0.1 -0.8,-0.34 -0.22,-0.23 -0.34,-0.5 -0.37,-0.82 l -0.61,-4.84 1.92,-0.03 M 3.0539533,2 h 1.97 l -0.61,4.84 c -0.12,0.79 -0.51,1.16 -1.17,1.16 -0.41,0 -0.72,-0.14 -0.94,-0.45 -0.28,-0.35 -0.37,-0.74 -0.28,-1.17 l 1.03,-4.38 m 3.99,0 h 1.95 v 4.7 c 0,0.35 -0.11,0.65 -0.36,0.92 -0.25,0.26 -0.56,0.38 -0.94,0.38 -0.34,0 -0.63,-0.12 -0.86,-0.41 -0.23,-0.29 -0.34,-0.59 -0.34,-0.93 V 6.5 l 0.55,-4.5 m 3.9499997,0 h 1.95 l 0.55,4.5 c 0.08,0.42 0,0.77 -0.29,1.07 -0.26,0.3 -0.6,0.43 -1.01,0.43 -0.31,0 -0.59,-0.12 -0.84,-0.38 -0.25,-0.27 -0.36,-0.57 -0.36,-0.92 V 2 M 5.4439533,9.05 c 0.63,0.62 1.41,0.95 2.35,0.95 0.84,0 1.58,-0.33 2.2,-0.95 0.6899997,0.62 1.4499997,0.95 2.2999997,0.95 0.87,0 1.62,-0.33 2.25,-0.95 0.56,0.62 1.31,0.95 2.25,0.95 h 0.23 v 6 H 2.9939533 v -6 h 0.25 c 0.91,0 1.64,-0.33 2.2,-0.95 z"
     id="path2"
     style="fill:#364f6b;fill-opacity:1"
     inkscape:connector-curvature="0" />
</svg>
