<?xml version="1.0" encoding="UTF-8" standalone="no"?>
<!-- Created with Inkscape (http://www.inkscape.org/) -->

<svg
   xmlns:dc="http://purl.org/dc/elements/1.1/"
   xmlns:cc="http://creativecommons.org/ns#"
   xmlns:rdf="http://www.w3.org/1999/02/22-rdf-syntax-ns#"
   xmlns:svg="http://www.w3.org/2000/svg"
   xmlns="http://www.w3.org/2000/svg"
   xmlns:sodipodi="http://sodipodi.sourceforge.net/DTD/sodipodi-0.dtd"
   xmlns:inkscape="http://www.inkscape.org/namespaces/inkscape"
   width="6.6384377mm"
   height="5.9781199mm"
   viewBox="0 0 6.6384377 5.9781199"
   version="1.1"
   id="svg633"
   inkscape:version="0.92.4 (5da689c313, 2019-01-14)"
   sodipodi:docname="storefront.svg">
  <defs
     id="defs627" />
  <sodipodi:namedview
     id="base"
     pagecolor="#ffffff"
     bordercolor="#666666"
     borderopacity="1.0"
     inkscape:pageopacity="0.0"
     inkscape:pageshadow="2"
     inkscape:zoom="2.8"
     inkscape:cx="10.509764"
     inkscape:cy="12.203344"
     inkscape:document-units="mm"
     inkscape:current-layer="layer1"
     showgrid="false"
     fit-margin-top="0"
     fit-margin-left="0"
     fit-margin-right="0"
     fit-margin-bottom="0"
     inkscape:window-width="487"
     inkscape:window-height="421"
     inkscape:window-x="964"
     inkscape:window-y="171"
     inkscape:window-maximized="0" />
  <metadata
     id="metadata630">
    <rdf:RDF>
      <cc:Work
         rdf:about="">
        <dc:format>image/svg+xml</dc:format>
        <dc:type
           rdf:resource="http://purl.org/dc/dcmitype/StillImage" />
        <dc:title></dc:title>
      </cc:Work>
    </rdf:RDF>
  </metadata>
  <g
     inkscape:label="Layer 1"
     inkscape:groupmode="layer"
     id="layer1"
     transform="translate(-110.8296,-111.07049)">
    <path
       id="path5220"
       d="m 111.84407,111.07049 c -0.14281,0 -0.27901,0.0465 -0.40519,0.13953 -0.12621,0.093 -0.19925,0.21257 -0.23249,0.35868 l -0.34206,1.46459 c -0.083,0.36201 -0.0166,0.66757 0.19265,0.93659 0.0399,0.0399 0.0797,0.0797 0.11622,0.11291 0.19595,0.18926 0.41179,0.3089 0.72395,0.3089 0.31226,0 0.56129,-0.13618 0.7473,-0.31556 0.20924,0.20594 0.46163,0.31556 0.77383,0.31556 0.27897,0 0.54469,-0.12288 0.73064,-0.3089 0.22586,0.20924 0.48159,0.3089 0.76384,0.3089 0.28899,0 0.53475,-0.10962 0.74396,-0.31556 0.18932,0.18935 0.43838,0.31556 0.75393,0.31556 0.31547,0 0.53797,-0.11631 0.72729,-0.31223 0.03,-0.0296 0.0598,-0.0631 0.093,-0.0963 0.21917,-0.27229 0.28561,-0.58784 0.20258,-0.94985 l -0.34208,-1.46459 c -0.0432,-0.14611 -0.11955,-0.26568 -0.2424,-0.35868 -0.11958,-0.093 -0.24912,-0.13953 -0.39526,-0.13953 m -0.0167,0.65431 0.35868,1.46462 c 0.0296,0.1428 0,0.27229 -0.093,0.38856 -0.083,0.10296 -0.18602,0.14947 -0.31223,0.14947 -0.10289,0 -0.19258,-0.0333 -0.26571,-0.11295 -0.073,-0.0764 -0.11289,-0.16606 -0.12291,-0.27231 l -0.20252,-1.60746 m -3.95551,0 h 0.65427 l -0.20258,1.60746 c -0.0399,0.26238 -0.16936,0.38526 -0.38856,0.38526 -0.13617,0 -0.2391,-0.0465 -0.3122,-0.14947 -0.093,-0.11627 -0.12287,-0.24576 -0.093,-0.38856 m 1.66723,-1.45469 h 0.64762 v 1.56092 c 0,0.1163 -0.0367,0.21595 -0.11955,0.30559 -0.083,0.0863 -0.18599,0.12621 -0.31223,0.12621 -0.11291,0 -0.20924,-0.0399 -0.28558,-0.1362 -0.0764,-0.0963 -0.11291,-0.19595 -0.11291,-0.30884 v -0.0531 m 1.4945,-1.49454 h 0.64762 l 0.18263,1.49454 c 0.0268,0.13944 0,0.25572 -0.0962,0.35534 -0.0864,0.0997 -0.19931,0.14284 -0.33545,0.14284 -0.10301,0 -0.19601,-0.0399 -0.27901,-0.12621 -0.083,-0.0896 -0.11955,-0.18929 -0.11955,-0.30559 m -3.32113,1.43812 v 1.65055 c 0,0.36869 0.29557,0.66423 0.66421,0.66423 1.55098,0 3.0986,0 4.64958,0 0.36531,0 0.66421,-0.29554 0.66421,-0.66423 v -1.64395 c -0.18262,0.19267 -0.41512,0.3022 -0.66421,0.3155 -0.33209,0.01 -0.58118,-0.0863 -0.81697,-0.3155 -0.19931,0.19925 -0.46502,0.3155 -0.74397,0.3155 -0.29887,0 -0.56459,-0.11958 -0.76381,-0.30884 -0.18934,0.18926 -0.44842,0.30884 -0.73733,0.30884 -0.3022,0 -0.56792,-0.11625 -0.76717,-0.3155 -0.19261,0.19592 -0.45499,0.3155 -0.74393,0.3155 -0.2989,0 -0.52144,-0.11625 -0.74061,-0.3221 z"
       inkscape:connector-curvature="0"
       style="fill:#fc5185;fill-opacity:1;stroke-width:0.33211342" />
  </g>
</svg>
