<?xml version="1.0" encoding="UTF-8" standalone="no"?>
<svg
   xmlns:dc="http://purl.org/dc/elements/1.1/"
   xmlns:cc="http://creativecommons.org/ns#"
   xmlns:rdf="http://www.w3.org/1999/02/22-rdf-syntax-ns#"
   xmlns:svg="http://www.w3.org/2000/svg"
   xmlns="http://www.w3.org/2000/svg"
   xmlns:sodipodi="http://sodipodi.sourceforge.net/DTD/sodipodi-0.dtd"
   xmlns:inkscape="http://www.inkscape.org/namespaces/inkscape"
   version="1.1"
   width="24"
   height="24"
   viewBox="0 0 24 24"
   id="svg4"
   sodipodi:docname="tie.svg"
   inkscape:version="0.92.4 (5da689c313, 2019-01-14)">
  <metadata
     id="metadata10">
    <rdf:RDF>
      <cc:Work
         rdf:about="">
        <dc:format>image/svg+xml</dc:format>
        <dc:type
           rdf:resource="http://purl.org/dc/dcmitype/StillImage" />
        <dc:title></dc:title>
      </cc:Work>
    </rdf:RDF>
  </metadata>
  <defs
     id="defs8" />
  <sodipodi:namedview
     pagecolor="#ffffff"
     bordercolor="#666666"
     borderopacity="1"
     objecttolerance="10"
     gridtolerance="10"
     guidetolerance="10"
     inkscape:pageopacity="0"
     inkscape:pageshadow="2"
     inkscape:window-width="1920"
     inkscape:window-height="1022"
     id="namedview6"
     showgrid="false"
     inkscape:zoom="16"
     inkscape:cx="21.609236"
     inkscape:cy="16.945347"
     inkscape:window-x="0"
     inkscape:window-y="22"
     inkscape:window-maximized="1"
     inkscape:current-layer="svg4" />
  <path
     style="fill:#fc5185;stroke-width:0.0501167"
     d="M 11.664785,23.815171 C 10.580899,23.08666 9.0720921,21.70538 8.0345921,20.49181 c -0.5667,-0.66287 -0.76763,-1.03636 -0.81176,-1.50894 -0.0319,-0.34196 -0.002,-0.46834 1.05977,-4.48 0.18239,-0.68911 0.5125,-1.94077 0.73358,-2.78148 0.22108,-0.84071 0.46432,-1.7653602 0.54055,-2.0547902 0.0762,-0.28942 0.29219,-1.1125895 0.4799399,-1.8292595 0.187749,-0.71666 0.363158,-1.33122 0.389808,-1.36568 0.0369,-0.0478 0.421538,-0.0626 1.617613,-0.0626 1.45078,0 1.57119,0.007 1.59606,0.0877 0.0148,0.0482 0.35414,1.3281 0.75409,2.8441295 0.39996,1.5160202 0.77267,2.9255602 0.82825,3.1322902 0.0556,0.20673 0.38267,1.44712 0.72688,2.75642 0.34421,1.3093 0.67696,2.56096 0.73944,2.78147 0.0804,0.28387 0.11338,0.53264 0.11284,0.85199 -7.6e-4,0.39526 -0.0184,0.48608 -0.14353,0.73427 -0.28957,0.57448 -1.91772,2.32693 -3.01312,3.24316 -0.63129,0.528031 -1.51528,1.159531 -1.62315,1.159531 -0.0451,0 -0.205829,-0.0832 -0.357068,-0.18481 z m 6.877898,-8.644641 c -0.0627,-0.0317 -0.31229,-0.37534 -0.55456,-0.7636 -0.24228,-0.38826 -0.89366,-1.4278 -1.44751,-2.31008 l -1.00699,-1.60414 -0.48408,-1.8212997 c -0.26624,-1.00171 -0.46932,-1.83597 -0.45129,-1.8539 0.0285,-0.0284 4.47918,4.4147397 5.78168,5.7718597 l 0.47027,0.48999 -0.0296,0.25026 c -0.0417,0.35228 -0.31215,0.87016 -0.61793,1.18336 -0.44654,0.45738 -1.34894,0.81484 -1.65995,0.65755 z M 10.120512,5.2544503 c -0.1632802,-0.19399 -0.4534399,-0.57175 -0.6447799,-0.83946 -1.05523,-1.4764007 -1.39783,-2.5257507 -1.11918,-3.42792065 0.125,-0.40469 0.36588,-0.69113 0.7132,-0.84806 l 0.26529,-0.11987 2.5747009,-0.0143 c 2.8579,-0.0158 2.90802,-0.0112 3.32268,0.30503 0.13465,0.1027 0.27254,0.27573 0.36667,0.46012 0.14167,0.27748995 0.15069,0.32935995 0.14785,0.84982995 -0.003,0.47093 -0.0233,0.61014 -0.1375,0.92547 -0.29754,0.8212607 -1.14327,2.1424407 -1.85571,2.8989607 l -0.15339,0.16287 H 12.008873 10.4174 Z"
     id="path907"
     inkscape:connector-curvature="0" />
</svg>
