<?xml version="1.0" encoding="UTF-8" standalone="no"?>
<svg
   xmlns:dc="http://purl.org/dc/elements/1.1/"
   xmlns:cc="http://creativecommons.org/ns#"
   xmlns:rdf="http://www.w3.org/1999/02/22-rdf-syntax-ns#"
   xmlns:svg="http://www.w3.org/2000/svg"
   xmlns="http://www.w3.org/2000/svg"
   xmlns:sodipodi="http://sodipodi.sourceforge.net/DTD/sodipodi-0.dtd"
   xmlns:inkscape="http://www.inkscape.org/namespaces/inkscape"
   version="1.1"
   width="24"
   height="24"
   viewBox="0 0 24 24"
   id="svg4"
   sodipodi:docname="truck.svg"
   inkscape:version="0.92.4 (5da689c313, 2019-01-14)">
  <metadata
     id="metadata10">
    <rdf:RDF>
      <cc:Work
         rdf:about="">
        <dc:format>image/svg+xml</dc:format>
        <dc:type
           rdf:resource="http://purl.org/dc/dcmitype/StillImage" />
        <dc:title></dc:title>
      </cc:Work>
    </rdf:RDF>
  </metadata>
  <defs
     id="defs8" />
  <sodipodi:namedview
     pagecolor="#ffffff"
     bordercolor="#666666"
     borderopacity="1"
     objecttolerance="10"
     gridtolerance="10"
     guidetolerance="10"
     inkscape:pageopacity="0"
     inkscape:pageshadow="2"
     inkscape:window-width="1920"
     inkscape:window-height="1022"
     id="namedview6"
     showgrid="false"
     inkscape:zoom="14.320798"
     inkscape:cx="37.581558"
     inkscape:cy="5.6385941"
     inkscape:window-x="0"
     inkscape:window-y="22"
     inkscape:window-maximized="1"
     inkscape:current-layer="svg4" />
  <path
     d="m 18.545455,19.090909 a 1.6363636,1.6363636 0 0 1 -1.636364,-1.636363 1.6363636,1.6363636 0 0 1 1.636364,-1.636364 1.6363636,1.6363636 0 0 1 1.636363,1.636364 1.6363636,1.6363636 0 0 1 -1.636363,1.636363 M 20.181818,9.2727272 22.32,12 H 17.454545 V 9.2727272 M 5.4545455,19.090909 A 1.6363636,1.6363636 0 0 1 3.8181818,17.454546 1.6363636,1.6363636 0 0 1 5.4545455,15.818182 1.6363636,1.6363636 0 0 1 7.0909091,17.454546 1.6363636,1.6363636 0 0 1 5.4545455,19.090909 M 20.727273,7.6363636 H 17.454545 V 3.2727272 H 2.1818182 C 0.9709091,3.2727272 0,4.2436363 0,5.4545454 V 17.454546 h 2.1818182 a 3.2727273,3.2727273 0 0 0 3.2727273,3.272727 3.2727273,3.2727273 0 0 0 3.2727272,-3.272727 h 6.5454543 a 3.2727273,3.2727273 0 0 0 3.272728,3.272727 3.2727273,3.2727273 0 0 0 3.272727,-3.272727 H 24 V 12 Z"
     id="path2"
     style="fill:#fc5185;fill-opacity:1;stroke-width:1.09090912"
     inkscape:connector-curvature="0" />
</svg>
