<?xml version="1.0" encoding="UTF-8" standalone="no"?>
<svg
   xmlns:dc="http://purl.org/dc/elements/1.1/"
   xmlns:cc="http://creativecommons.org/ns#"
   xmlns:rdf="http://www.w3.org/1999/02/22-rdf-syntax-ns#"
   xmlns:svg="http://www.w3.org/2000/svg"
   xmlns="http://www.w3.org/2000/svg"
   xmlns:sodipodi="http://sodipodi.sourceforge.net/DTD/sodipodi-0.dtd"
   xmlns:inkscape="http://www.inkscape.org/namespaces/inkscape"
   version="1.1"
   width="24"
   height="24"
   viewBox="0 0 24 24"
   id="svg4"
   sodipodi:docname="dress.svg"
   inkscape:version="0.92.4 (5da689c313, 2019-01-14)">
  <metadata
     id="metadata10">
    <rdf:RDF>
      <cc:Work
         rdf:about="">
        <dc:format>image/svg+xml</dc:format>
        <dc:type
           rdf:resource="http://purl.org/dc/dcmitype/StillImage" />
        <dc:title></dc:title>
      </cc:Work>
    </rdf:RDF>
  </metadata>
  <defs
     id="defs8" />
  <sodipodi:namedview
     pagecolor="#ffffff"
     bordercolor="#666666"
     borderopacity="1"
     objecttolerance="10"
     gridtolerance="10"
     guidetolerance="10"
     inkscape:pageopacity="0"
     inkscape:pageshadow="2"
     inkscape:window-width="1920"
     inkscape:window-height="1022"
     id="namedview6"
     showgrid="false"
     inkscape:zoom="11.313709"
     inkscape:cx="28.794911"
     inkscape:cy="0.057756763"
     inkscape:window-x="0"
     inkscape:window-y="22"
     inkscape:window-maximized="1"
     inkscape:current-layer="svg4" />
  <path
     style="fill:#fc5185;stroke-width:0.05742161"
     d="m 2.7485275,23.912418 c -0.33097,-0.17959 -0.41923,-0.58367 -0.33115,-1.51621 0.0824,-0.87288 0.22772,-1.51452 0.57592,-2.54363 0.62646,-1.85147 1.84332,-4.13937 3.48875,-6.55941 1.11518,-1.64017 2.63102,-3.6017797 2.88461,-3.7329197 0.25317,-0.13092 5.0369195,-0.12723 5.3018095,0.004 0.20851,0.10337 0.41662,0.35221 1.48566,1.7764997 1.63628,2.18002 2.89591,4.18374 3.86245,6.14411 1.09041,2.21159 1.57988,3.85662 1.59751,5.36892 0.008,0.69889 -0.0666,0.90456 -0.38321,1.05481 -0.18062,0.0857 -0.75202,0.0928 -6.38449,0.0795 l -6.1861195,-0.0146 -0.10938,-0.14651 c -0.1078,-0.14438 -0.10717,-0.17938 0.0428,-2.40288 0.14892,-2.20746 0.1448,-2.57559 -0.0253,-2.25784 -0.0337,0.0631 -0.39534,1.04127 -0.80354,2.17383 -0.90935,2.52297 -0.91518,2.53754 -1.04379,2.60637 -0.0615,0.0329 -0.86492,0.0548 -1.95979,0.0534 -1.52926,-0.002 -1.88326,-0.0173 -2.01281,-0.0876 z m 6.99276,-15.5120097 c -0.0618,-0.0164 -0.17005,-0.0676 -0.24045,-0.11368 -0.16307,-0.10685 -2.71916,-5.11407 -2.71916,-5.32666 0,-0.40164 0.33189,-0.6575 1.11743,-0.8614 0.39874,-0.10351 1.21399,-0.11623 1.65034,-0.0258 0.4635695,0.0961 1.2860795,0.51182 1.7904795,0.90489 0.61154,0.47658 0.72146,0.47676 1.33424,0.002 0.52861,-0.40939 1.18137,-0.75299 1.67201,-0.88012 0.97698,-0.25316 2.5454,0.049 2.79892,0.53929 0.048,0.0929 0.0873,0.2363 0.0873,0.31875 0,0.23502 -2.56382,5.23757 -2.74523,5.35652 -0.13361,0.0876 -0.38486,0.0988 -2.39137,0.10683 -1.23314,0.005 -2.2926795,-0.004 -2.3545195,-0.0209 z m -1.8259,-6.76897 c -0.0742,-0.0742 -0.0505,-1.48574001 0.0262,-1.56246001 0.0379,-0.0379 0.1791,-0.06890000384 0.31379,-0.06890000384 0.18335,0 0.25984,0.02790000384 0.30434,0.111070003844 0.0876,0.16367 0.0773,1.35312001 -0.0123,1.42691001 -0.0937,0.0771 -0.57687,0.14851 -0.632,0.0934 z m 7.7092195,-0.0174 c -0.14201,-0.0394 -0.14373,-0.0475 -0.15973,-0.74704001 -0.018,-0.78826 0.01,-0.866900003844 0.30562,-0.866900003844 0.37513,0 0.3709,-0.0099999962 0.3709,0.867470003844 V 1.6653283 l -0.18662,-0.006 c -0.10264,-0.003 -0.25122,-0.0237 -0.33017,-0.0456 z"
     id="path1056"
     inkscape:connector-curvature="0" />
</svg>
