<?xml version="1.0" encoding="UTF-8" standalone="no"?>
<svg
   xmlns:dc="http://purl.org/dc/elements/1.1/"
   xmlns:cc="http://creativecommons.org/ns#"
   xmlns:rdf="http://www.w3.org/1999/02/22-rdf-syntax-ns#"
   xmlns:svg="http://www.w3.org/2000/svg"
   xmlns="http://www.w3.org/2000/svg"
   xmlns:sodipodi="http://sodipodi.sourceforge.net/DTD/sodipodi-0.dtd"
   xmlns:inkscape="http://www.inkscape.org/namespaces/inkscape"
   version="1.1"
   width="22"
   height="19"
   viewBox="0 0 22 19"
   id="svg4"
   sodipodi:docname="eye-off.svg"
   inkscape:version="0.92.4 (5da689c313, 2019-01-14)">
  <metadata
     id="metadata10">
    <rdf:RDF>
      <cc:Work
         rdf:about="">
        <dc:format>image/svg+xml</dc:format>
        <dc:type
           rdf:resource="http://purl.org/dc/dcmitype/StillImage" />
        <dc:title></dc:title>
      </cc:Work>
    </rdf:RDF>
  </metadata>
  <defs
     id="defs8" />
  <sodipodi:namedview
     pagecolor="#ffffff"
     bordercolor="#666666"
     borderopacity="1"
     objecttolerance="10"
     gridtolerance="10"
     guidetolerance="10"
     inkscape:pageopacity="0"
     inkscape:pageshadow="2"
     inkscape:window-width="840"
     inkscape:window-height="480"
     id="namedview6"
     showgrid="false"
     fit-margin-top="0"
     fit-margin-left="0"
     fit-margin-right="0"
     fit-margin-bottom="0"
     inkscape:zoom="12.099609"
     inkscape:cx="1.8261501"
     inkscape:cy="10"
     inkscape:window-x="0"
     inkscape:window-y="22"
     inkscape:window-maximized="0"
     inkscape:current-layer="svg4" />
  <path
     d="M 10.83,6 14,9.16 C 14,9.11 14,9.05 14,9 A 3,3 0 0 0 11,6 C 10.94,6 10.89,6 10.83,6 M 6.53,6.8 8.08,8.35 C 8.03,8.56 8,8.77 8,9 a 3,3 0 0 0 3,3 c 0.22,0 0.44,-0.03 0.65,-0.08 l 1.55,1.55 C 12.53,13.8 11.79,14 11,14 A 5,5 0 0 1 6,9 C 6,8.21 6.2,7.47 6.53,6.8 M 1,1.27 3.28,3.55 3.73,4 C 2.08,5.3 0.78,7 0,9 c 1.73,4.39 6,7.5 11,7.5 1.55,0 3.03,-0.3 4.38,-0.84 L 15.81,16.08 18.73,19 20,17.73 2.27,0 M 11,4 a 5,5 0 0 1 5,5 c 0,0.64 -0.13,1.26 -0.36,1.82 l 2.93,2.93 C 20.07,12.5 21.27,10.86 22,9 20.27,4.61 16,1.5 11,1.5 9.6,1.5 8.26,1.75 7,2.2 L 9.17,4.35 C 9.74,4.13 10.35,4 11,4 Z"
     id="path2"
     style="fill:#6c6c6c;fill-opacity:1"
     inkscape:connector-curvature="0" />
</svg>
