<?xml version="1.0" encoding="UTF-8" standalone="no"?>
<svg
   xmlns:dc="http://purl.org/dc/elements/1.1/"
   xmlns:cc="http://creativecommons.org/ns#"
   xmlns:rdf="http://www.w3.org/1999/02/22-rdf-syntax-ns#"
   xmlns:svg="http://www.w3.org/2000/svg"
   xmlns="http://www.w3.org/2000/svg"
   id="svg1990"
   version="1.1"
   viewBox="0 0 75.025734 28.744184"
   height="28.744183mm"
   width="75.025734mm">
  <defs
     id="defs1984" />
  <metadata
     id="metadata1987">
    <rdf:RDF>
      <cc:Work
         rdf:about="">
        <dc:format>image/svg+xml</dc:format>
        <dc:type
           rdf:resource="http://purl.org/dc/dcmitype/StillImage" />
        <dc:title></dc:title>
      </cc:Work>
    </rdf:RDF>
  </metadata>
  <g
     transform="translate(-42.687514,-63.68944)"
     id="layer1">
    <path
       id="path1492"
       d="m 88.072426,75.627002 c 0.01595,-0.0239 0.01392,-0.03186 -0.006,-0.0239 -0.02057,0.008 -0.05177,0.01592 -0.09226,0.0239 h -0.04846 l -0.01262,0.01261 c -0.01662,0.01658 -0.03651,0.02855 -0.06107,0.03651 -0.01657,0.0086 -0.02654,0.0146 -0.03054,0.01859 -0.0048,0.0046 -0.01459,0.01 -0.03054,0.01858 -0.01662,0.0166 -0.04114,0.03253 -0.07369,0.04912 -0.04912,0.03186 -0.09359,0.06904 -0.134751,0.109528 -0.02389,0.0166 -0.04912,0.03518 -0.07302,0.0551 -0.02457,0.02058 -0.04912,0.03917 -0.07369,0.0551 -0.04845,0.03253 -0.08563,0.06704 -0.110189,0.104218 -0.02389,0.03651 -0.04912,0.06306 -0.07302,0.07966 -0.01662,0.008 -0.02457,0.01792 -0.02457,0.03054 0,0.01195 -0.0039,0.02655 -0.01262,0.04248 -0.01662,0.0166 -0.02457,0.02655 -0.02457,0.03054 v 0.0312 c 0,0.01592 0.0079,0.0239 0.02457,0.0239 h 0.03719 c 0.02389,-0.01592 0.04051,-0.03253 0.04912,-0.04912 0.0079,-0.01592 0.01595,-0.02854 0.02389,-0.03651 0.0079,-0.01593 0.02254,-0.02456 0.04316,-0.02456 0.01989,0 0.03849,-0.008 0.0551,-0.0239 0.01594,-0.008 0.03054,-0.02456 0.04249,-0.04912 0.01262,-0.02456 0.02654,-0.04448 0.04316,-0.06173 0.0159,-0.01592 0.03252,-0.0239 0.04912,-0.0239 0.01594,0 0.03651,-0.008 0.06107,-0.02456 0.008,-0.008 0.01392,-0.01195 0.01792,-0.01195 0.0039,0 0.01065,-0.0046 0.01859,-0.01261 l 0.01792,-0.01858 c 0.0048,-0.0033 0.0146,-0.01394 0.03122,-0.03054 0.0159,-0.01592 0.02389,-0.03054 0.02389,-0.04248 0,-0.01261 0.0086,-0.02655 0.02524,-0.04315 0.0079,-0.0239 0.0199,-0.04447 0.03651,-0.06107 0.01595,-0.0166 0.03252,-0.03253 0.04912,-0.04846 0.0079,-0.0086 0.01792,-0.01459 0.03054,-0.01858 0.01195,-0.004 0.02587,-0.01062 0.04249,-0.01859 0.02457,0 0.04446,-0.008 0.06107,-0.02456 0.01662,0 0.03252,-0.008 0.04912,-0.02456 0.02457,-0.008 0.04051,-0.0239 0.04912,-0.04912 m -1.358143,4.478683 c -0.01662,0.03252 -0.02254,0.0531 -0.01859,0.06107 0.0039,0.008 0.01392,0.02058 0.03054,0.03651 0.02457,0.02456 0.03454,0.02655 0.03054,0.0066 -0.0039,-0.02058 0.01,-0.03916 0.04316,-0.05509 0.02389,-0.02523 0.03849,-0.04713 0.04249,-0.06771 0.0039,-0.02058 0.02259,-0.05111 0.05509,-0.0916 0.0079,-0.0166 0.01657,-0.02655 0.02457,-0.03054 0.0079,-0.004 0.01262,-0.01 0.01262,-0.01858 0,-0.0166 0.0034,-0.03253 0.01195,-0.04846 v -0.01261 c -0.0086,-0.008 -0.02057,-0.01261 -0.03719,-0.01261 h -0.04846 c -0.04114,0.0166 -0.06372,0.03319 -0.06704,0.04912 -0.0048,0.01659 -0.01064,0.03651 -0.01859,0.06173 0,0.01592 -0.0086,0.03186 -0.02457,0.04846 -0.01657,0.0166 -0.02857,0.04116 -0.03651,0.07368 m 0.428156,-3.744517 c 0.01594,-0.0239 0.0039,-0.03186 -0.03651,-0.0239 -0.03319,0.01593 -0.07833,0.0531 -0.134752,0.109527 -0.03319,0.03319 -0.0551,0.0551 -0.06771,0.06771 -0.01195,0.01261 -0.01989,0.02257 -0.02457,0.03054 -0.0039,0.008 -0.01,0.0166 -0.01792,0.02456 l -0.04912,0.04846 c -0.05709,0.04912 -0.0936,0.08829 -0.110194,0.11683 -0.01594,0.02855 -0.01594,0.03452 0,0.01792 0.06505,-0.04846 0.132762,-0.09559 0.201795,-0.140063 0.0697,-0.04514 0.124134,-0.08829 0.165291,-0.128777 0.04051,-0.04049 0.06107,-0.06572 0.06107,-0.07368 0.0086,-0.008 0.01262,-0.0239 0.01262,-0.04912 m -0.513784,4.148109 c 0.01595,-0.01593 0.02857,-0.03253 0.03651,-0.04912 0.008,-0.01592 0.02057,-0.03651 0.03651,-0.06107 0.01662,-0.02456 0.02259,-0.04315 0.01859,-0.0551 -0.0039,-0.01195 -0.006,-0.02589 -0.006,-0.04248 0,-0.0166 -0.02057,-0.02456 -0.06173,-0.02456 h -0.06108 c -0.01657,0.01592 -0.02852,0.04116 -0.03651,0.07368 -0.0079,0.03186 -0.01662,0.06903 -0.02457,0.109527 v 0.01261 c -0.01662,0.01592 -0.02457,0.03253 -0.02457,0.04912 0,0.01593 -0.008,0.03252 -0.02389,0.04846 -0.0086,0.0166 -0.01262,0.03253 -0.01262,0.04912 0,0.0166 -0.0039,0.02855 -0.01262,0.03651 0,0.0086 -0.0019,0.02058 -0.006,0.03717 -0.0039,0.01592 -0.0019,0.02854 0.006,0.03651 h 0.02524 c 0.0079,0 0.01392,-0.0066 0.01792,-0.01858 0.0039,-0.01195 0.01065,-0.02257 0.01859,-0.03054 0.0079,0 0.01195,-0.004 0.01195,-0.01261 0,-0.008 0.0039,-0.01592 0.01262,-0.0239 0.0079,-0.008 0.01195,-0.02058 0.01195,-0.03651 0.0079,-0.008 0.01262,-0.01659 0.01262,-0.02523 0,-0.008 0.0073,-0.01592 0.02389,-0.0239 0.01662,-0.0166 0.02457,-0.02854 0.02457,-0.03651 v -0.01261 z M 86.4448,81.133255 c 0.01662,-0.01659 -0.0039,-0.02456 -0.06107,-0.02456 v -0.06107 c 0,-0.01592 -0.0039,-0.02855 -0.01262,-0.03651 -0.0079,0 -0.01195,-0.0046 -0.01195,-0.01261 -0.0079,-0.008 -0.01662,-0.006 -0.02457,0.0066 -0.0079,0.01195 -0.01195,0.02655 -0.01195,0.04248 0,0.008 -0.0019,0.01658 -0.006,0.02456 -0.0048,0.008 -0.006,0.01658 -0.006,0.02456 0,0.03252 -0.0048,0.05244 -0.01262,0.06107 0,0.008 0.0019,0.01394 0.006,0.01792 0.0039,0.0047 0.0066,0.01062 0.0066,0.01859 v 0.02456 c -0.0086,0.008 -0.01262,0.01592 -0.01262,0.02456 0,0.0166 0.0019,0.03253 0.006,0.04912 0.0039,0.01592 0.0066,0.02855 0.0066,0.03651 h 0.01195 l 0.02457,-0.03651 v -0.06107 c 0.0079,0.01592 0.01989,0.0073 0.03651,-0.02523 0.0079,-0.01592 0.01859,-0.02855 0.03054,-0.03651 0.01195,-0.008 0.02259,-0.02058 0.03054,-0.03651 M 80.657674,76.9612 c 0.03252,-0.04116 0.02457,-0.04315 -0.02457,-0.006 -0.04912,0.03651 -0.118157,0.08364 -0.207772,0.140727 -0.04114,0.0239 -0.07368,0.04713 -0.09824,0.06704 -0.02457,0.01991 -0.04514,0.03651 -0.06107,0.04846 -0.01662,0.01261 -0.03252,0.02655 -0.04912,0.04315 -0.01594,0.0166 -0.04051,0.03717 -0.07302,0.06107 -0.04114,0.03319 -0.07368,0.05908 -0.09824,0.07966 -0.02457,0.02058 -0.04912,0.04248 -0.07302,0.06771 -0.02457,0.0239 -0.05377,0.05111 -0.0863,0.07899 -0.03184,0.02921 -0.06903,0.05908 -0.109525,0.09227 -0.04114,0.04049 -0.09426,0.0916 -0.159313,0.152675 -0.06572,0.06107 -0.134751,0.12413 -0.207773,0.189184 -0.04114,0.04116 -0.07766,0.07634 -0.110189,0.104217 -0.03252,0.02855 -0.0697,0.06373 -0.110194,0.104217 -0.04114,0.03253 -0.07567,0.06306 -0.104216,0.0916 -0.02852,0.02921 -0.05908,0.0551 -0.09161,0.07966 -0.06571,0.04912 -0.122136,0.100235 -0.17126,0.152675 -0.04912,0.05377 -0.0936,0.100234 -0.134751,0.140726 -0.08962,0.09824 -0.163297,0.171925 -0.220384,0.220383 -0.05642,0.04116 -0.08762,0.07169 -0.09161,0.0916 -0.0039,0.02058 -0.02654,0.05111 -0.06704,0.0916 -0.03251,0.04116 -0.05111,0.06572 -0.0551,0.07368 -0.0048,0.0086 -0.01859,0.02921 -0.04249,0.06107 -0.01662,0.02456 0,0.02855 0.04845,0.01261 0.02457,-0.008 0.04912,-0.02058 0.07369,-0.03651 0.05642,-0.04116 0.104216,-0.0843 0.140724,-0.128778 0.03651,-0.04514 0.06704,-0.07966 0.09161,-0.104218 0.02457,-0.03252 0.06505,-0.06505 0.12214,-0.09758 0.05709,-0.03253 0.09824,-0.06107 0.12214,-0.08563 0.03319,-0.02456 0.07567,-0.0697 0.128778,-0.134752 0.0531,-0.06505 0.104217,-0.12214 0.152676,-0.171261 0.04912,-0.05709 0.09425,-0.0936 0.134746,-0.110192 0.04114,-0.0166 0.08563,-0.04448 0.134756,-0.08563 l 0.11019,-0.110191 c 0.01594,-0.01592 0.03454,-0.03452 0.0551,-0.0551 0.01989,-0.01991 0.04648,-0.04248 0.07965,-0.06704 0.05709,-0.05709 0.09161,-0.09758 0.103556,-0.122804 0.01262,-0.0239 0.03916,-0.06041 0.07965,-0.109528 0.04051,-0.04912 0.08364,-0.09824 0.128779,-0.1467 0.04446,-0.04912 0.09161,-0.09824 0.140729,-0.147365 0.04051,-0.04049 0.09758,-0.08563 0.171259,-0.134753 0.07302,-0.04846 0.130108,-0.09293 0.171265,-0.134088 0.04046,-0.04116 0.08762,-0.08165 0.140724,-0.122139 0.05244,-0.04116 0.09161,-0.08563 0.116167,-0.134753 m -2.58157,2.385696 c 0.04051,-0.06505 0.01994,-0.06771 -0.06173,-0.006 -0.08165,0.06107 -0.21574,0.1852 -0.403594,0.373057 -0.09758,0.08961 -0.161303,0.151346 -0.189848,0.183873 -0.02857,0.03186 -0.05045,0.05709 -0.06704,0.07302 -0.01662,0.01659 -0.03651,0.03651 -0.06107,0.06107 -0.02457,0.02456 -0.07766,0.07368 -0.158648,0.1467 -0.163297,0.155332 -0.274151,0.265522 -0.330573,0.330576 -0.05709,0.06505 -0.0697,0.08563 -0.03651,0.06107 l 0.550296,-0.477274 c 0.04051,-0.04049 0.08364,-0.07766 0.128778,-0.109527 0.04446,-0.0332 0.08696,-0.0697 0.128114,-0.110857 0.04051,-0.04049 0.07965,-0.077 0.116162,-0.109527 0.03651,-0.03253 0.07568,-0.06572 0.116167,-0.09824 l 0.14073,-0.140727 c 0.02852,-0.02788 0.04912,-0.05045 0.06106,-0.06705 0.01262,-0.0166 0.02057,-0.03054 0.02457,-0.04315 0.0039,-0.01195 0.01859,-0.03452 0.04316,-0.06704 m -1.235863,-8.784639 c 0.08961,-0.0166 0.167276,-0.03054 0.23233,-0.04315 0.06505,-0.01195 0.08961,-0.01792 0.07368,-0.01792 -0.02457,-0.0086 -0.06372,-0.01459 -0.116162,-0.01859 -0.05311,-0.004 -0.108205,-0.01 -0.165291,-0.01858 0.03251,-0.0239 0.0079,-0.04448 -0.07368,-0.06107 -0.04051,-0.008 -0.07169,-0.02257 -0.09161,-0.04248 -0.02057,-0.02058 -0.04711,-0.03452 -0.07965,-0.04315 -0.04051,0 -0.06107,0.04116 -0.06107,0.122804 -0.03252,0.008 -0.05709,0.01592 -0.07368,0.0239 -0.01595,0.0086 -0.04051,0.01659 -0.07302,0.02456 -0.03252,0 -0.06107,0.01261 -0.08563,0.03717 -0.0086,0.008 -0.01195,0.01593 -0.01195,0.0239 v 0.01261 c 0.01595,0.008 0.04846,0.01195 0.09758,0.01195 0.03252,0.0086 0.07766,0.01261 0.134752,0.01261 0.02389,0 0.04912,-0.002 0.07302,-0.006 0.02457,-0.0047 0.04912,-0.0066 0.07368,-0.0066 0.02457,0 0.04846,-0.002 0.07368,-0.006 0.02389,-0.004 0.04846,-0.006 0.07302,-0.006 m -1.01562,-0.02457 c 0.01662,0 0.02654,-0.002 0.03054,-0.006 0.0039,-0.004 0.01,-0.006 0.01859,-0.006 h 0.02457 -0.06107 c -0.01662,0 -0.03719,0.002 -0.06107,0.006 -0.02524,0.004 -0.04912,0.006 -0.07368,0.006 h -0.171259 c -0.02457,0.008 -0.05111,0.01195 -0.07966,0.01195 h -0.06704 c 0,-0.0239 -0.0048,-0.04448 -0.01262,-0.06107 -0.01662,-0.03252 -0.03651,-0.04846 -0.06107,-0.04846 h -0.04912 c -0.008,-0.0086 -0.01595,-0.01261 -0.02389,-0.01261 -0.0086,0 -0.02057,-0.004 -0.03719,-0.01195 -0.02457,-0.0166 -0.04846,-0.01062 -0.07368,0.01792 -0.02389,0.02854 -0.04446,0.06372 -0.06041,0.104217 h -0.01262 c -0.04114,-0.0166 -0.08563,-0.0166 -0.134751,0 -0.01595,0.008 -0.03849,0.0166 -0.06704,0.02456 -0.02857,0.008 -0.05974,0.01195 -0.09227,0.01195 -0.07302,0.0086 -0.120149,0.01859 -0.140062,0.03054 -0.02058,0.01261 -0.05111,0.03518 -0.09161,0.06771 -0.01658,0.01592 -0.02058,0.03651 -0.01261,0.06107 0.008,0.02456 0.02058,0.04912 0.03651,0.07368 0.008,0.01593 0.02456,0.03651 0.04912,0.06107 l 0.02456,0.02456 c 0.04049,0.01592 0.08164,0.01592 0.122137,0 0.04051,-0.01659 0.08962,-0.03717 0.146703,-0.06173 l 0.07368,-0.03651 c 0.02457,-0.008 0.0531,-0.02058 0.08563,-0.03651 0.04912,-0.01659 0.106205,-0.03253 0.171259,-0.04912 0.01594,-0.008 0.03054,-0.01261 0.04249,-0.01261 0.01262,0 0.02654,-0.0033 0.04316,-0.01195 0.01594,-0.008 0.03454,-0.01195 0.05509,-0.01195 0.02057,0 0.03849,-0.004 0.0551,-0.01261 0.04051,-0.01593 0.07766,-0.02855 0.110194,-0.03651 0.03252,-0.008 0.06903,-0.0166 0.11019,-0.02456 0.04051,-0.01592 0.07501,-0.02854 0.103551,-0.03651 0.02857,-0.008 0.0551,-0.0166 0.07966,-0.02456 M 74.3324,70.782538 c 0.0073,-0.04912 0,-0.06572 -0.02456,-0.04912 -0.0166,0.008 -0.02921,0.01195 -0.03717,0.01195 -0.008,0 -0.02058,0.0046 -0.03651,0.01261 -0.01659,0 -0.03054,0.002 -0.04315,0.006 -0.01195,0.004 -0.02655,0.006 -0.04248,0.006 -0.04116,0 -0.07567,0.002 -0.104217,0.006 -0.02855,0.0047 -0.05908,0.01062 -0.09161,0.01859 -0.05709,0.03252 -0.130105,0.05311 -0.220382,0.06107 -0.08961,0.0166 -0.142717,0.03054 -0.158648,0.04315 -0.01661,0.01195 -0.04514,0.03054 -0.08563,0.0551 -0.04116,0.01592 -0.03717,0.04846 0.01195,0.09758 0.008,0.01659 0.01859,0.02655 0.03054,0.03054 0.01261,0.004 0.02257,0.01062 0.03054,0.01859 0.008,0.008 0.01659,0.01195 0.02456,0.01195 0.06505,0.02456 0.118157,0.02921 0.159313,0.01261 0.04049,-0.0166 0.08098,-0.04116 0.12214,-0.07368 0.03253,-0.03253 0.07766,-0.04912 0.134752,-0.04912 0.02456,-0.008 0.05045,-0.01195 0.07966,-0.01195 0.02788,0 0.06306,-0.008 0.103553,-0.02456 0.05709,-0.008 0.0936,-0.02854 0.110192,-0.06107 0.0166,-0.0166 0.02456,-0.03253 0.02456,-0.04912 0,-0.01593 0.004,-0.04049 0.01261,-0.07302 m -1.052792,0.354469 c 0.03252,-0.04049 0.02456,-0.06107 -0.0239,-0.06107 -0.03319,0 -0.0697,0.002 -0.110855,0.006 -0.04049,0.004 -0.08563,0.002 -0.134088,-0.006 -0.08961,-0.008 -0.155331,0 -0.195823,0.02456 -0.01659,0.008 -0.03452,0.0166 -0.0551,0.02456 -0.02058,0.008 -0.05111,0.0166 -0.0916,0.0239 -0.07368,0.0086 -0.142717,0.03319 -0.208434,0.07368 -0.01592,0.0086 -0.03253,0.0146 -0.04846,0.01858 -0.01659,0.004 -0.03319,0.01 -0.04912,0.01793 -0.02456,0.0086 -0.0697,0.02058 -0.134753,0.03717 -0.04049,0.008 -0.106209,0.03253 -0.195822,0.07302 -0.04049,0.0166 -0.08165,0.03518 -0.122139,0.0551 -0.04116,0.02058 -0.08165,0.03917 -0.122804,0.0551 -0.08961,0.04116 -0.177236,0.07966 -0.262866,0.116165 -0.08563,0.03717 -0.165287,0.06373 -0.238306,0.07966 -0.08165,0.02456 -0.146701,0.05311 -0.195822,0.08563 -0.03253,0.01659 -0.06107,0.03252 -0.08563,0.04912 -0.02456,0.0166 -0.04912,0.03253 -0.07368,0.04912 -0.06505,0.04846 -0.110193,0.08165 -0.134753,0.09758 -0.06505,0.03253 -0.105544,0.04912 -0.12214,0.04912 -0.07302,0.01593 -0.112183,0.04049 -0.116165,0.07302 -0.004,0.03319 -0.02655,0.06572 -0.06704,0.09824 -0.04116,0.03252 -0.06373,0.0531 -0.06704,0.06107 -0.0046,0.008 -0.0146,0.03253 -0.0312,0.07368 -0.02456,0.04049 -0.004,0.06904 0.06107,0.08563 0.0086,0.008 0.02855,0.01195 0.06174,0.01195 0.008,0 0.01593,0.004 0.02456,0.01261 0.06505,-0.0086 0.122139,-0.03319 0.17126,-0.07368 l 0.09758,-0.09824 c 0.03252,-0.01592 0.08364,-0.0219 0.153337,-0.01792 0.06904,0.004 0.120149,-0.002 0.152676,-0.01859 0.02456,-0.008 0.06903,-0.04049 0.134752,-0.09758 0.02456,-0.02456 0.05045,-0.04912 0.07966,-0.07368 0.02788,-0.02456 0.05841,-0.04447 0.0916,-0.06107 0.03253,-0.01658 0.06107,-0.02655 0.08563,-0.03054 0.02456,-0.004 0.05244,-0.006 0.08563,-0.006 0.02456,0 0.04912,0.002 0.07302,0.006 0.02456,0.004 0.0531,-0.002 0.08563,-0.01859 0.04116,-0.01593 0.08563,-0.03253 0.134752,-0.04846 0.01659,-0.01658 0.03651,-0.0312 0.06107,-0.04315 0.02456,-0.01195 0.05311,-0.02655 0.08563,-0.04315 0.06505,-0.03252 0.108201,-0.06306 0.128778,-0.0916 0.01991,-0.02855 0.05045,-0.06704 0.0916,-0.116165 l 0.06107,-0.06107 c 0.02456,-0.02456 0.0531,-0.04514 0.08563,-0.06107 0.02456,-0.0166 0.05111,-0.03253 0.07966,-0.04912 0.02855,-0.01593 0.05908,-0.03252 0.09161,-0.04912 0.03252,-0.01592 0.06173,-0.0239 0.08563,-0.0239 0.02456,-0.0086 0.06505,-0.01261 0.122805,-0.01261 0.04049,-0.008 0.077,-0.01195 0.109527,-0.01195 0.03319,0 0.06173,-0.0086 0.08563,-0.02456 0.05709,-0.01659 0.114174,-0.03252 0.171261,-0.04912 0.05709,-0.01593 0.102225,-0.0531 0.134752,-0.110192 m -3.022298,1.309022 c 0.0166,-0.05709 -0.004,-0.08563 -0.06041,-0.08563 -0.06572,0 -0.151347,0.02456 -0.257555,0.07368 -0.05709,0.02456 -0.0936,0.04514 -0.110192,0.06107 -0.01593,0.0166 -0.02655,0.02854 -0.02987,0.03651 -0.0047,0.0086 -0.01261,0.01859 -0.02456,0.03054 -0.01261,0.01261 -0.04315,0.0312 -0.09227,0.0551 -0.106209,0.04912 -0.16728,0.09028 -0.183211,0.122804 -0.01658,0.01592 -0.02655,0.02855 -0.03054,0.03651 -0.0047,0.008 0.002,0.008 0.01792,0 0.05709,-0.01592 0.114176,-0.02655 0.171926,-0.03054 0.05642,-0.004 0.11351,-0.01393 0.170598,-0.03054 0.05709,-0.0166 0.110192,-0.03054 0.159313,-0.04315 0.04912,-0.01195 0.0936,-0.03054 0.134752,-0.0551 0.07368,-0.04912 0.110192,-0.077 0.110192,-0.08563 0,-0.008 0.008,-0.03651 0.0239,-0.08563 m 19.295412,9.029697 c -0.01662,0.06572 -0.09625,0.163295 -0.238307,0.294066 -0.143384,0.130104 -0.339205,0.256227 -0.587465,0.37903 -0.248929,0.12214 -0.55295,0.215738 -0.912068,0.281453 -0.358454,0.06505 -0.762708,0.06107 -1.210777,-0.01195 -0.2934,-0.04912 -0.50781,-0.153338 -0.642562,-0.312651 -0.134751,-0.15865 -0.209761,-0.35248 -0.226356,-0.580828 -0.01657,-0.228348 0.01662,-0.479266 0.09758,-0.752754 0.08165,-0.272823 0.189849,-0.552284 0.3246,-0.837721 0.134751,-0.285433 0.283448,-0.564895 0.44674,-0.838383 0.162632,-0.272823 0.321945,-0.52374 0.477275,-0.752753 0.195157,-0.293401 0.405583,-0.582819 0.62995,-0.868254 0.224367,-0.285436 0.422178,-0.54432 0.593443,-0.77665 0.171259,-0.232996 0.297383,-0.430145 0.379027,-0.593441 0.08165,-0.163296 0.08563,-0.277469 0.01262,-0.342523 -0.139399,-0.114838 -0.610037,0.14471 -1.413236,0.776651 -0.803869,0.631941 -1.931668,1.641585 -3.383406,3.028271 -0.203789,0.21972 -0.411562,0.403593 -0.623978,0.550293 -0.187194,0.122805 -0.395626,0.216401 -0.623977,0.281453 -0.228346,0.06572 -0.46068,0.04116 -0.696989,-0.07368 -0.155334,-0.07302 -0.21441,-0.215737 -0.177902,-0.42749 0.03719,-0.212417 0.130768,-0.463334 0.281454,-0.752754 0.150681,-0.289417 0.33854,-0.601405 0.562902,-0.935962 0.224367,-0.334557 0.450724,-0.659158 0.679074,-0.972473 0.228346,-0.314642 0.436119,-0.60406 0.623973,-0.868918 0.187859,-0.264857 0.321945,-0.475283 0.404258,-0.630613 0.105546,-0.211754 0.166616,-0.373058 0.183211,-0.482586 0.01662,-0.110854 0.006,-0.189848 -0.03054,-0.238969 -0.03719,-0.04912 -0.08165,-0.07567 -0.134751,-0.07966 -0.05311,-0.004 -0.09161,-0.006 -0.116167,-0.006 -0.244946,0 -0.564897,0.126786 -0.960524,0.379695 -0.395626,0.252246 -0.840377,0.58282 -1.333581,0.991058 -0.49387,0.407576 -1.019604,0.870248 -1.578528,1.388678 -0.558918,0.517766 -1.123815,1.048146 -1.694025,1.58981 -0.571534,0.542991 -1.131787,1.068723 -1.682738,1.578524 -0.550961,0.509802 -1.060761,0.960523 -1.529404,1.352168 -0.469312,0.391644 -0.885517,0.699649 -1.247953,0.924015 -0.363101,0.223702 -0.642562,0.319952 -0.838385,0.287427 -0.09758,-0.0166 -0.179226,-0.04514 -0.244279,-0.08563 -0.06572,-0.04116 -0.118821,-0.08563 -0.159313,-0.134753 -0.07368,-0.08961 -0.112182,-0.191839 -0.116166,-0.306013 -0.004,-0.114175 0.01394,-0.240296 0.0551,-0.379032 0.05709,-0.171261 0.154665,-0.3631 0.2934,-0.575518 0.138736,-0.211753 0.289419,-0.421515 0.452714,-0.629949 0.163296,-0.207771 0.326592,-0.401601 0.489224,-0.580828 0.163296,-0.179228 0.298048,-0.326591 0.404257,-0.440766 0.367081,-0.375049 0.746113,-0.772666 1.137761,-1.192855 0.391643,-0.420188 0.764701,-0.833737 1.119171,-1.241975 0.355135,-0.407576 0.681064,-0.801212 0.979107,-1.180907 0.297384,-0.379032 0.536356,-0.715581 0.715583,-1.008982 0.317962,-0.513784 0.581491,-1.004998 0.789264,-1.474307 0.207767,-0.469309 0.357124,-0.903437 0.44674,-1.303046 0.08961,-0.39961 0.116162,-0.754746 0.07965,-1.064742 -0.03719,-0.309997 -0.136746,-0.566887 -0.300038,-0.770675 -0.138735,-0.171263 -0.454707,-0.289419 -0.947912,-0.355136 -0.49387,-0.06505 -1.117847,-0.04846 -1.871927,0.04912 -0.754745,0.09824 -1.621009,0.290083 -2.600118,0.575517 -0.979111,0.285436 -2.023274,0.689028 -3.132489,1.210777 -0.24428,0.11484 -0.477274,0.229013 -0.697658,0.343188 -0.219719,0.114174 -0.428153,0.228349 -0.623311,0.341857 -0.212418,0.11484 -0.430808,0.232997 -0.65451,0.355137 -0.22503,0.122139 -0.438774,0.24096 -0.642562,0.355134 -0.204453,0.114175 -0.38567,0.215736 -0.54432,0.305351 -0.159312,0.09028 -0.279461,0.155329 -0.361109,0.195821 -0.08961,0.04912 -0.15533,0.07966 -0.195821,0.0916 -0.04116,0.01261 -0.0697,0.01062 -0.08563,-0.006 -0.01659,-0.01592 -0.02058,-0.04049 -0.01195,-0.07302 0.04049,-0.179227 0.12214,-0.353144 0.24428,-0.520422 0.122804,-0.166615 0.260875,-0.323936 0.416205,-0.470636 0.154667,-0.146701 0.308005,-0.27747 0.458688,-0.391645 0.150684,-0.114173 0.279461,-0.207771 0.38567,-0.281453 0.864272,-0.521749 1.867279,-1.009645 3.009686,-1.462359 1.141742,-0.452714 2.463374,-0.825771 3.964234,-1.119173 0.138735,-0.02456 0.313979,-0.05111 0.526395,-0.07966 0.211756,-0.02854 0.442096,-0.04912 0.69102,-0.06107 0.248265,-0.01195 0.505821,-0.01459 0.770675,-0.006 0.264859,0.008 0.520421,0.03651 0.764702,0.08563 0.309999,0.08165 0.61402,0.207771 0.911404,0.379032 0.298048,0.171261 0.544983,0.412222 0.740139,0.721554 0.244946,0.391644 0.375049,0.850996 0.391648,1.376728 0.01662,0.526397 -0.142719,1.166304 -0.477275,1.921048 -0.334556,0.754745 -0.880869,1.650216 -1.638933,2.685749 -0.758728,1.035534 -1.786959,2.255606 -3.084033,3.658221 -0.04846,0.06505 -0.09957,0.124132 -0.152671,0.177236 -0.05311,0.0531 -0.108204,0.112184 -0.165291,0.1779 -0.08098,0.08961 -0.167276,0.189184 -0.256891,0.299376 -0.08961,0.11019 -0.164623,0.216398 -0.226357,0.317961 -0.06107,0.102225 -0.101561,0.19184 -0.122139,0.269505 -0.02058,0.077 -0.002,0.132761 0.05509,0.165286 0.04049,0.02456 0.189849,-0.07567 0.446741,-0.300038 0.256891,-0.224366 0.58282,-0.525733 0.978447,-0.905429 0.395626,-0.379032 0.850334,-0.815815 1.364777,-1.30902 0.513123,-0.493207 1.050139,-0.997034 1.608398,-1.511481 0.558923,-0.513784 1.125809,-1.016948 1.700667,-1.510817 0.574854,-0.493206 1.127799,-0.929988 1.658177,-1.30902 0.529718,-0.379697 1.017614,-0.681064 1.46236,-0.905429 0.444086,-0.224365 0.817145,-0.324599 1.119176,-0.300038 0.301363,0.02456 0.497189,0.106208 0.587465,0.244942 0.08961,0.138735 0.109529,0.316634 0.06107,0.532372 -0.04912,0.216398 -0.15533,0.460678 -0.317962,0.734166 -0.163297,0.273486 -0.349161,0.558922 -0.556934,0.856306 -0.207768,0.298048 -0.424167,0.595433 -0.648534,0.892817 -0.224363,0.298046 -0.426162,0.577507 -0.605389,0.838383 -0.179891,0.260875 -0.316632,0.497853 -0.410232,0.709606 -0.09359,0.212417 -0.116167,0.375713 -0.06704,0.489886 0.04846,0.114175 0.148692,0.138071 0.300038,0.07302 0.150686,-0.06505 0.339869,-0.189848 0.568215,-0.373057 0.228351,-0.183873 0.485907,-0.412222 0.77134,-0.685046 0.285437,-0.273487 0.584815,-0.560913 0.899458,-0.862945 0.313313,-0.301366 0.635923,-0.603397 0.965831,-0.905427 0.330578,-0.301367 0.650529,-0.570872 0.960523,-0.807185 0.310659,-0.236978 0.606053,-0.42417 0.887507,-0.562905 0.281454,-0.138736 0.532372,-0.203788 0.752755,-0.195822 0.2934,0.01659 0.483249,0.09559 0.568881,0.238305 0.08496,0.143381 0.08297,0.353143 -0.0066,0.629949 -0.08962,0.278134 -0.264859,0.628623 -0.525729,1.052792 -0.26154,0.424172 -0.591453,0.926006 -0.991063,1.504843 -0.147362,0.203788 -0.316632,0.46068 -0.50781,0.770676 -0.191838,0.309997 -0.365092,0.626631 -0.519757,0.947911 -0.155329,0.322609 -0.263529,0.623976 -0.324599,0.905429 -0.06107,0.282116 -0.03054,0.501835 0.09161,0.661147 0.12214,0.158651 0.361108,0.230341 0.716243,0.214409 0.354469,-0.01658 0.874231,-0.167942 1.559273,-0.452713 0.130773,-0.05709 0.244946,-0.102226 0.343189,-0.134752 0.08962,-0.03319 0.166616,-0.05974 0.232329,-0.07966 0.06505,-0.02058 0.0936,-0.01858 0.08563,0.006"
       style="fill:#382f2f;fill-opacity:1;fill-rule:nonzero;stroke:none;stroke-width:0.16993371" />
    <path
       id="path1494"
       d="m 71.789326,90.274489 0.06306,-0.393632 0.173252,-1.562593 0.09293,-0.949242 c 0.0697,0.0019 0.133423,0.0024 0.191175,0.0024 0.05974,0 0.12413,-4.82e-4 0.19383,-0.0024 l 0.131434,0.287427 c 0.03784,0.07833 0.116829,0.236978 0.236313,0.47661 l 0.786608,1.564587 0.215071,0.412886 1.575871,-2.485943 c 0.03584,-0.05908 0.0843,-0.144713 0.146698,-0.255567 0.06705,0.0019 0.132102,0.0024 0.193832,0.0024 0.06173,0 0.126124,-4.82e-4 0.193832,-0.0024 l -0.02857,1.232685 c -0.0048,0.278135 -0.0066,0.484573 -0.0066,0.619329 0,0.444081 0.006,0.795237 0.01725,1.053453 -0.05178,-0.0014 -0.09824,-0.0019 -0.140064,-0.0019 -0.04379,0 -0.09094,4.82e-4 -0.140724,0.0019 l 0.04978,-1.871922 c 0.006,-0.225697 0.0093,-0.424837 0.0093,-0.597426 v -0.281454 l -0.50715,0.793912 -1.211438,1.95689 c -0.0478,-0.0014 -0.100898,-0.0019 -0.15865,-0.0019 -0.05775,0 -0.110855,4.82e-4 -0.158649,0.0019 l -1.303046,-2.566262 -0.09227,-0.169935 -0.03385,0.248925 c -0.008,0.0697 -0.0219,0.209766 -0.04182,0.421518 l -0.159314,1.565911 c -0.006,0.06638 -0.01128,0.133427 -0.01527,0.20047 -0.004,0.06771 -0.0073,0.167281 -0.0093,0.299373 -0.05111,-0.0014 -0.09559,-0.0019 -0.133425,-0.0019 -0.03717,0 -0.08032,4.82e-4 -0.130105,0.0019"
       style="fill:#382f2f;fill-opacity:1;fill-rule:nonzero;stroke:none;stroke-width:0.16993371" />
    <path
       id="path1496"
       d="m 81.891088,88.199443 c -0.236978,0 -0.456696,0.04114 -0.660485,0.123465 -0.202459,0.08165 -0.352481,0.207107 -0.447405,0.375713 -0.09625,0.16927 -0.143378,0.353805 -0.143378,0.554939 0,0.142054 0.02722,0.275481 0.08165,0.400275 0.05509,0.12413 0.142714,0.229676 0.264854,0.315308 0.121476,0.08563 0.252248,0.145373 0.392308,0.178562 0.140729,0.03319 0.288756,0.05045 0.444086,0.05045 0.177237,0 0.343188,-0.02057 0.498518,-0.06173 0.155329,-0.04114 0.292075,-0.11019 0.410891,-0.206443 0.118157,-0.09625 0.205119,-0.214406 0.260876,-0.355135 0.05576,-0.140064 0.0843,-0.288756 0.0843,-0.446075 0,-0.146702 -0.02789,-0.283443 -0.08231,-0.411557 -0.0551,-0.128778 -0.140065,-0.231005 -0.255567,-0.308669 -0.115502,-0.077 -0.246935,-0.131433 -0.394297,-0.162633 -0.147367,-0.03054 -0.298713,-0.04648 -0.454043,-0.04648 m 0.006,-0.119486 c 0.185204,0 0.364431,0.01859 0.537685,0.05576 0.173249,0.03651 0.325924,0.09957 0.458686,0.187859 0.132097,0.08895 0.232994,0.205113 0.303356,0.348497 0.0697,0.142718 0.104217,0.294729 0.104217,0.455367 0,0.173254 -0.03719,0.33854 -0.110854,0.497853 -0.07302,0.158649 -0.177898,0.292075 -0.313314,0.398946 -0.135416,0.106875 -0.294064,0.182546 -0.47661,0.226361 -0.181886,0.04446 -0.375713,0.06638 -0.580831,0.06638 -0.143379,0 -0.284108,-0.01195 -0.422843,-0.03516 -0.13807,-0.02322 -0.267513,-0.06239 -0.388324,-0.118156 -0.120151,-0.05509 -0.225692,-0.126784 -0.316637,-0.21507 -0.09028,-0.08762 -0.159308,-0.191838 -0.205773,-0.312654 -0.04716,-0.120811 -0.07037,-0.24627 -0.07037,-0.377038 0,-0.227686 0.05975,-0.436783 0.179226,-0.626631 0.119487,-0.189184 0.298049,-0.328583 0.536356,-0.418199 0.237643,-0.08895 0.493205,-0.134087 0.766027,-0.134087"
       style="fill:#382f2f;fill-opacity:1;fill-rule:nonzero;stroke:none;stroke-width:0.16993371" />
    <path
       id="path1498"
       d="m 87.792967,88.914356 2.126824,0.0019 c -0.0019,-0.09758 -0.01,-0.173253 -0.02389,-0.225032 -0.01392,-0.05244 -0.03984,-0.10687 -0.07766,-0.161962 -0.03786,-0.05576 -0.08297,-0.103556 -0.136081,-0.143383 -0.0531,-0.04114 -0.114837,-0.07501 -0.185864,-0.102892 -0.07036,-0.02722 -0.149357,-0.04846 -0.237638,-0.0624 -0.08763,-0.01392 -0.179227,-0.02124 -0.274816,-0.02124 -0.105546,0 -0.209762,0.0086 -0.311324,0.02524 -0.101562,0.01725 -0.194497,0.04051 -0.278134,0.07036 -0.08364,0.02987 -0.161968,0.06771 -0.234984,0.114173 -0.07236,0.04581 -0.132102,0.09625 -0.179232,0.150022 -0.04711,0.05377 -0.08297,0.104881 -0.107535,0.154 -0.02524,0.04912 -0.05178,0.116167 -0.07965,0.201134 m 2.090981,1.149707 c -0.01595,0.05244 -0.02789,0.10687 -0.03584,0.161303 -0.165286,0.03454 -0.313313,0.05775 -0.444746,0.07169 -0.131432,0.01329 -0.266188,0.0199 -0.403593,0.0199 -0.238968,0 -0.450724,-0.02322 -0.634599,-0.06903 -0.184535,-0.04648 -0.341854,-0.122805 -0.473287,-0.229675 -0.131437,-0.106876 -0.225032,-0.227022 -0.280793,-0.360448 -0.05576,-0.132762 -0.08364,-0.274816 -0.08364,-0.425497 0,-0.196486 0.04779,-0.381026 0.143383,-0.553615 0.09559,-0.171924 0.252908,-0.314643 0.471962,-0.428151 0.219054,-0.113509 0.490551,-0.1706 0.815155,-0.1706 0.223038,0 0.425497,0.02987 0.606713,0.08829 0.181216,0.05908 0.321946,0.15533 0.422178,0.288757 0.100897,0.133421 0.151351,0.29141 0.151351,0.47462 0,0.03386 -0.0019,0.06638 -0.006,0.09758 l -2.365797,0.0019 c -0.01,0.09226 -0.01527,0.161967 -0.01527,0.208432 0,0.134756 0.02789,0.264859 0.08364,0.390983 0.05576,0.126124 0.140064,0.231665 0.252908,0.316632 0.112848,0.08497 0.247599,0.148027 0.405588,0.189184 0.157319,0.04114 0.323935,0.06173 0.499178,0.06173 0.267513,0 0.564897,-0.04514 0.891486,-0.134087"
       style="fill:#382f2f;fill-opacity:1;fill-rule:nonzero;stroke:none;stroke-width:0.16993371" />
    <path
       id="path1502"
       d="m 63.404297,68.230469 -9.748047,9.234375 9.402344,10.427734 0.126953,-0.115234 -9.291016,-10.302735 9.625,-9.121093 z"
       style="color:#000000;font-style:normal;font-variant:normal;font-weight:normal;font-stretch:normal;font-size:medium;line-height:normal;font-family:sans-serif;font-variant-ligatures:normal;font-variant-position:normal;font-variant-caps:normal;font-variant-numeric:normal;font-variant-alternates:normal;font-feature-settings:normal;text-indent:0;text-align:start;text-decoration:none;text-decoration-line:none;text-decoration-style:solid;text-decoration-color:#000000;letter-spacing:normal;word-spacing:normal;text-transform:none;writing-mode:lr-tb;direction:ltr;text-orientation:mixed;dominant-baseline:auto;baseline-shift:baseline;text-anchor:start;white-space:normal;shape-padding:0;clip-rule:nonzero;display:inline;overflow:visible;visibility:visible;opacity:1;isolation:auto;mix-blend-mode:normal;color-interpolation:sRGB;color-interpolation-filters:linearRGB;solid-color:#000000;solid-opacity:1;vector-effect:none;fill:#382f2f;fill-opacity:1;fill-rule:nonzero;stroke:none;stroke-width:0.16993371;stroke-linecap:butt;stroke-linejoin:miter;stroke-miterlimit:4;stroke-dasharray:none;stroke-dashoffset:0;stroke-opacity:1;color-rendering:auto;image-rendering:auto;shape-rendering:auto;text-rendering:auto;enable-background:accumulate" />
    <path
       id="path1506"
       d="m 47.314453,72.527344 v 0.169922 h 11.597656 v -0.169922 z"
       style="color:#000000;font-style:normal;font-variant:normal;font-weight:normal;font-stretch:normal;font-size:medium;line-height:normal;font-family:sans-serif;font-variant-ligatures:normal;font-variant-position:normal;font-variant-caps:normal;font-variant-numeric:normal;font-variant-alternates:normal;font-feature-settings:normal;text-indent:0;text-align:start;text-decoration:none;text-decoration-line:none;text-decoration-style:solid;text-decoration-color:#000000;letter-spacing:normal;word-spacing:normal;text-transform:none;writing-mode:lr-tb;direction:ltr;text-orientation:mixed;dominant-baseline:auto;baseline-shift:baseline;text-anchor:start;white-space:normal;shape-padding:0;clip-rule:nonzero;display:inline;overflow:visible;visibility:visible;opacity:1;isolation:auto;mix-blend-mode:normal;color-interpolation:sRGB;color-interpolation-filters:linearRGB;solid-color:#000000;solid-opacity:1;vector-effect:none;fill:#382f2f;fill-opacity:1;fill-rule:nonzero;stroke:none;stroke-width:0.16993371;stroke-linecap:butt;stroke-linejoin:miter;stroke-miterlimit:4;stroke-dasharray:none;stroke-dashoffset:0;stroke-opacity:1;color-rendering:auto;image-rendering:auto;shape-rendering:auto;text-rendering:auto;enable-background:accumulate" />
    <path
       id="path1512"
       d="m 47.314453,82.240234 v 0.169922 h 10.855469 v -0.169922 z"
       style="color:#000000;font-style:normal;font-variant:normal;font-weight:normal;font-stretch:normal;font-size:medium;line-height:normal;font-family:sans-serif;font-variant-ligatures:normal;font-variant-position:normal;font-variant-caps:normal;font-variant-numeric:normal;font-variant-alternates:normal;font-feature-settings:normal;text-indent:0;text-align:start;text-decoration:none;text-decoration-line:none;text-decoration-style:solid;text-decoration-color:#000000;letter-spacing:normal;word-spacing:normal;text-transform:none;writing-mode:lr-tb;direction:ltr;text-orientation:mixed;dominant-baseline:auto;baseline-shift:baseline;text-anchor:start;white-space:normal;shape-padding:0;clip-rule:nonzero;display:inline;overflow:visible;visibility:visible;opacity:1;isolation:auto;mix-blend-mode:normal;color-interpolation:sRGB;color-interpolation-filters:linearRGB;solid-color:#000000;solid-opacity:1;vector-effect:none;fill:#382f2f;fill-opacity:1;fill-rule:nonzero;stroke:none;stroke-width:0.16993371;stroke-linecap:butt;stroke-linejoin:miter;stroke-miterlimit:4;stroke-dasharray:none;stroke-dashoffset:0;stroke-opacity:1;color-rendering:auto;image-rendering:auto;shape-rendering:auto;text-rendering:auto;enable-background:accumulate" />
    <path
       id="path1514"
       d="m 42.6875,77.384766 v 0.169922 h 11.087891 v -0.169922 z"
       style="color:#000000;font-style:normal;font-variant:normal;font-weight:normal;font-stretch:normal;font-size:medium;line-height:normal;font-family:sans-serif;font-variant-ligatures:normal;font-variant-position:normal;font-variant-caps:normal;font-variant-numeric:normal;font-variant-alternates:normal;font-feature-settings:normal;text-indent:0;text-align:start;text-decoration:none;text-decoration-line:none;text-decoration-style:solid;text-decoration-color:#000000;letter-spacing:normal;word-spacing:normal;text-transform:none;writing-mode:lr-tb;direction:ltr;text-orientation:mixed;dominant-baseline:auto;baseline-shift:baseline;text-anchor:start;white-space:normal;shape-padding:0;clip-rule:nonzero;display:inline;overflow:visible;visibility:visible;opacity:1;isolation:auto;mix-blend-mode:normal;color-interpolation:sRGB;color-interpolation-filters:linearRGB;solid-color:#000000;solid-opacity:1;vector-effect:none;fill:#382f2f;fill-opacity:1;fill-rule:nonzero;stroke:none;stroke-width:0.16993371;stroke-linecap:butt;stroke-linejoin:miter;stroke-miterlimit:4;stroke-dasharray:none;stroke-dashoffset:0;stroke-opacity:1;color-rendering:auto;image-rendering:auto;shape-rendering:auto;text-rendering:auto;enable-background:accumulate" />
    <path
       id="path1652"
       d="m 96.998047,68.230469 -0.117188,0.123047 9.625001,9.121093 -9.291016,10.302735 0.126953,0.115234 9.402343,-10.427734 z"
       style="color:#000000;font-style:normal;font-variant:normal;font-weight:normal;font-stretch:normal;font-size:medium;line-height:normal;font-family:sans-serif;font-variant-ligatures:normal;font-variant-position:normal;font-variant-caps:normal;font-variant-numeric:normal;font-variant-alternates:normal;font-feature-settings:normal;text-indent:0;text-align:start;text-decoration:none;text-decoration-line:none;text-decoration-style:solid;text-decoration-color:#000000;letter-spacing:normal;word-spacing:normal;text-transform:none;writing-mode:lr-tb;direction:ltr;text-orientation:mixed;dominant-baseline:auto;baseline-shift:baseline;text-anchor:start;white-space:normal;shape-padding:0;clip-rule:nonzero;display:inline;overflow:visible;visibility:visible;opacity:1;isolation:auto;mix-blend-mode:normal;color-interpolation:sRGB;color-interpolation-filters:linearRGB;solid-color:#000000;solid-opacity:1;vector-effect:none;fill:#382f2f;fill-opacity:1;fill-rule:nonzero;stroke:none;stroke-width:0.16993371;stroke-linecap:butt;stroke-linejoin:miter;stroke-miterlimit:4;stroke-dasharray:none;stroke-dashoffset:0;stroke-opacity:1;color-rendering:auto;image-rendering:auto;shape-rendering:auto;text-rendering:auto;enable-background:accumulate" />
    <path
       id="path1654"
       d="m 101.48828,72.527344 v 0.169922 h 11.59766 v -0.169922 z"
       style="color:#000000;font-style:normal;font-variant:normal;font-weight:normal;font-stretch:normal;font-size:medium;line-height:normal;font-family:sans-serif;font-variant-ligatures:normal;font-variant-position:normal;font-variant-caps:normal;font-variant-numeric:normal;font-variant-alternates:normal;font-feature-settings:normal;text-indent:0;text-align:start;text-decoration:none;text-decoration-line:none;text-decoration-style:solid;text-decoration-color:#000000;letter-spacing:normal;word-spacing:normal;text-transform:none;writing-mode:lr-tb;direction:ltr;text-orientation:mixed;dominant-baseline:auto;baseline-shift:baseline;text-anchor:start;white-space:normal;shape-padding:0;clip-rule:nonzero;display:inline;overflow:visible;visibility:visible;opacity:1;isolation:auto;mix-blend-mode:normal;color-interpolation:sRGB;color-interpolation-filters:linearRGB;solid-color:#000000;solid-opacity:1;vector-effect:none;fill:#382f2f;fill-opacity:1;fill-rule:nonzero;stroke:none;stroke-width:0.16993371;stroke-linecap:butt;stroke-linejoin:miter;stroke-miterlimit:4;stroke-dasharray:none;stroke-dashoffset:0;stroke-opacity:1;color-rendering:auto;image-rendering:auto;shape-rendering:auto;text-rendering:auto;enable-background:accumulate" />
    <path
       id="path1656"
       d="m 102.23047,82.240234 v 0.169922 h 10.85547 v -0.169922 z"
       style="color:#000000;font-style:normal;font-variant:normal;font-weight:normal;font-stretch:normal;font-size:medium;line-height:normal;font-family:sans-serif;font-variant-ligatures:normal;font-variant-position:normal;font-variant-caps:normal;font-variant-numeric:normal;font-variant-alternates:normal;font-feature-settings:normal;text-indent:0;text-align:start;text-decoration:none;text-decoration-line:none;text-decoration-style:solid;text-decoration-color:#000000;letter-spacing:normal;word-spacing:normal;text-transform:none;writing-mode:lr-tb;direction:ltr;text-orientation:mixed;dominant-baseline:auto;baseline-shift:baseline;text-anchor:start;white-space:normal;shape-padding:0;clip-rule:nonzero;display:inline;overflow:visible;visibility:visible;opacity:1;isolation:auto;mix-blend-mode:normal;color-interpolation:sRGB;color-interpolation-filters:linearRGB;solid-color:#000000;solid-opacity:1;vector-effect:none;fill:#382f2f;fill-opacity:1;fill-rule:nonzero;stroke:none;stroke-width:0.16993371;stroke-linecap:butt;stroke-linejoin:miter;stroke-miterlimit:4;stroke-dasharray:none;stroke-dashoffset:0;stroke-opacity:1;color-rendering:auto;image-rendering:auto;shape-rendering:auto;text-rendering:auto;enable-background:accumulate" />
    <path
       id="path1658"
       d="m 106.625,77.384766 v 0.169922 h 11.08789 v -0.169922 z"
       style="color:#000000;font-style:normal;font-variant:normal;font-weight:normal;font-stretch:normal;font-size:medium;line-height:normal;font-family:sans-serif;font-variant-ligatures:normal;font-variant-position:normal;font-variant-caps:normal;font-variant-numeric:normal;font-variant-alternates:normal;font-feature-settings:normal;text-indent:0;text-align:start;text-decoration:none;text-decoration-line:none;text-decoration-style:solid;text-decoration-color:#000000;letter-spacing:normal;word-spacing:normal;text-transform:none;writing-mode:lr-tb;direction:ltr;text-orientation:mixed;dominant-baseline:auto;baseline-shift:baseline;text-anchor:start;white-space:normal;shape-padding:0;clip-rule:nonzero;display:inline;overflow:visible;visibility:visible;opacity:1;isolation:auto;mix-blend-mode:normal;color-interpolation:sRGB;color-interpolation-filters:linearRGB;solid-color:#000000;solid-opacity:1;vector-effect:none;fill:#382f2f;fill-opacity:1;fill-rule:nonzero;stroke:none;stroke-width:0.16993371;stroke-linecap:butt;stroke-linejoin:miter;stroke-miterlimit:4;stroke-dasharray:none;stroke-dashoffset:0;stroke-opacity:1;color-rendering:auto;image-rendering:auto;shape-rendering:auto;text-rendering:auto;enable-background:accumulate" />
  </g>
</svg>
