<?xml version="1.0" encoding="UTF-8" standalone="no"?>
<!-- Created with Inkscape (http://www.inkscape.org/) -->

<svg
   xmlns:dc="http://purl.org/dc/elements/1.1/"
   xmlns:cc="http://creativecommons.org/ns#"
   xmlns:rdf="http://www.w3.org/1999/02/22-rdf-syntax-ns#"
   xmlns:svg="http://www.w3.org/2000/svg"
   xmlns="http://www.w3.org/2000/svg"
   xmlns:sodipodi="http://sodipodi.sourceforge.net/DTD/sodipodi-0.dtd"
   xmlns:inkscape="http://www.inkscape.org/namespaces/inkscape"
   width="4.7624998mm"
   height="5.5562501mm"
   viewBox="0 0 4.7624997 5.5562501"
   version="1.1"
   id="svg1614"
   inkscape:version="0.92.4 (5da689c313, 2019-01-14)"
   sodipodi:docname="shopping.svg">
  <defs
     id="defs1608" />
  <sodipodi:namedview
     id="base"
     pagecolor="#ffffff"
     bordercolor="#666666"
     borderopacity="1.0"
     inkscape:pageopacity="0.0"
     inkscape:pageshadow="2"
     inkscape:zoom="6.6609375"
     inkscape:cx="46.111476"
     inkscape:cy="21.124293"
     inkscape:document-units="mm"
     inkscape:current-layer="layer1"
     showgrid="false"
     fit-margin-top="0"
     fit-margin-left="0"
     fit-margin-right="0"
     fit-margin-bottom="0"
     inkscape:window-width="1609"
     inkscape:window-height="774"
     inkscape:window-x="47"
     inkscape:window-y="69"
     inkscape:window-maximized="0" />
  <metadata
     id="metadata1611">
    <rdf:RDF>
      <cc:Work
         rdf:about="">
        <dc:format>image/svg+xml</dc:format>
        <dc:type
           rdf:resource="http://purl.org/dc/dcmitype/StillImage" />
        <dc:title></dc:title>
      </cc:Work>
    </rdf:RDF>
  </metadata>
  <g
     inkscape:label="Layer 1"
     inkscape:groupmode="layer"
     id="layer1"
     transform="translate(229.91925,-18.382366)">
    <path
       id="path855"
       d="m -227.538,21.557366 a 1.3229167,1.3229167 0 0 1 -1.32292,-1.322916 h 0.52917 a 0.79375,0.79375 0 0 0 0.79375,0.79375 0.79375,0.79375 0 0 0 0.79375,-0.79375 h 0.52917 a 1.3229167,1.3229167 0 0 1 -1.32292,1.322916 m 0,-2.645833 a 0.79375,0.79375 0 0 1 0.79375,0.79375 h -1.5875 a 0.79375,0.79375 0 0 1 0.79375,-0.79375 m 1.85208,0.79375 h -0.52916 a 1.3229167,1.3229167 0 0 0 -1.32292,-1.322917 1.3229167,1.3229167 0 0 0 -1.32292,1.322917 h -0.52916 c -0.29369,0 -0.52917,0.235479 -0.52917,0.529167 v 3.175 a 0.52916667,0.52916667 0 0 0 0.52917,0.529166 h 3.70416 a 0.52916667,0.52916667 0 0 0 0.52917,-0.529166 v -3.175 c 0,-0.293688 -0.23812,-0.529167 -0.52917,-0.529167 z"
       inkscape:connector-curvature="0"
       style="fill:#fc5185;fill-opacity:1;stroke-width:0.26458332" />
  </g>
</svg>
