<?xml version="1.0" encoding="UTF-8" standalone="no"?>
<svg
   xmlns:dc="http://purl.org/dc/elements/1.1/"
   xmlns:cc="http://creativecommons.org/ns#"
   xmlns:rdf="http://www.w3.org/1999/02/22-rdf-syntax-ns#"
   xmlns:svg="http://www.w3.org/2000/svg"
   xmlns="http://www.w3.org/2000/svg"
   xmlns:sodipodi="http://sodipodi.sourceforge.net/DTD/sodipodi-0.dtd"
   xmlns:inkscape="http://www.inkscape.org/namespaces/inkscape"
   version="1.1"
   width="19.988548"
   height="18"
   viewBox="0 0 19.988548 18"
   id="svg4"
   sodipodi:docname="store.svg"
   inkscape:version="0.92.4 (5da689c313, 2019-01-14)">
  <metadata
     id="metadata10">
    <rdf:RDF>
      <cc:Work
         rdf:about="">
        <dc:format>image/svg+xml</dc:format>
        <dc:type
           rdf:resource="http://purl.org/dc/dcmitype/StillImage" />
        <dc:title></dc:title>
      </cc:Work>
    </rdf:RDF>
  </metadata>
  <defs
     id="defs8" />
  <sodipodi:namedview
     pagecolor="#ffffff"
     bordercolor="#666666"
     borderopacity="1"
     objecttolerance="10"
     gridtolerance="10"
     guidetolerance="10"
     inkscape:pageopacity="0"
     inkscape:pageshadow="2"
     inkscape:window-width="840"
     inkscape:window-height="480"
     id="namedview6"
     showgrid="false"
     inkscape:zoom="1.3159426"
     inkscape:cx="59.613454"
     inkscape:cy="59.301918"
     inkscape:window-x="483"
     inkscape:window-y="178"
     inkscape:window-maximized="0"
     inkscape:current-layer="svg4"
     fit-margin-top="0"
     fit-margin-left="0"
     fit-margin-right="0"
     fit-margin-bottom="0" />
  <path
     id="path812"
     d="m 3.0545994,0 c -0.43,0 -0.84,0.14 -1.22,0.42 -0.38,0.28 -0.6,0.64 -0.7,1.08 L 0.10459935,5.91 c -0.25,1.09 -0.05,2.01 0.58,2.82 0.12,0.12 0.24,0.24 0.35000005,0.34 0.59,0.57 1.24,0.93 2.18,0.93 0.94,0 1.69,-0.41 2.25,-0.95 0.63,0.62 1.39,0.95 2.33,0.95 0.84,0 1.64,-0.37 2.2,-0.93 C 10.674594,9.7 11.444594,10 12.294594,10 c 0.87,0 1.61,-0.33 2.24,-0.95 0.57,0.57 1.32,0.95 2.27,0.95 0.95,0 1.62,-0.35 2.19,-0.94 0.09,-0.09 0.18,-0.19 0.28,-0.29 0.66,-0.82 0.86,-1.77 0.61,-2.86 l -1.03,-4.41 c -0.13,-0.44 -0.36,-0.8 -0.73,-1.08 -0.36,-0.28 -0.75,-0.42 -1.19,-0.42 m -0.05,1.97 1.08,4.41 c 0.09,0.43 0,0.82 -0.28,1.17 -0.25,0.31 -0.56,0.45 -0.94,0.45 -0.31,0 -0.58,-0.1 -0.8,-0.34 -0.22,-0.23 -0.34,-0.5 -0.37,-0.82 L 14.964594,2 M 3.0545994,2 h 1.97 l -0.61,4.84 c -0.12,0.79 -0.51,1.16 -1.17,1.16 -0.41,0 -0.72,-0.14 -0.94,-0.45 -0.28,-0.35 -0.37,-0.74 -0.28,-1.17 m 5.02,-4.38 h 1.95 v 4.7 c 0,0.35 -0.11,0.65 -0.36,0.92 -0.25,0.26 -0.56,0.38 -0.94,0.38 -0.34,0 -0.63,-0.12 -0.86,-0.41 -0.23,-0.29 -0.34,-0.59 -0.34,-0.93 V 6.5 M 10.994594,2 h 1.95 l 0.55,4.5 c 0.08,0.42 0,0.77 -0.29,1.07 -0.26,0.3 -0.6,0.43 -1.01,0.43 -0.31,0 -0.59,-0.12 -0.84,-0.38 -0.25,-0.27 -0.36,-0.57 -0.36,-0.92 M 0.99459935,11.03 V 16 c 0,1.11 0.89000005,2 2.00000005,2 4.67,0 9.3299946,0 13.9999946,0 1.1,0 2,-0.89 2,-2 v -4.95 c -0.55,0.58 -1.25,0.91 -2,0.95 -1,0.03 -1.75,-0.26 -2.46,-0.95 -0.6,0.6 -1.4,0.95 -2.24,0.95 -0.9,0 -1.7,-0.36 -2.2999946,-0.93 -0.57,0.57 -1.35,0.93 -2.22,0.93 -0.91,0 -1.71,-0.35 -2.31,-0.95 -0.58,0.59 -1.37,0.95 -2.24,0.95 -0.9,0 -1.57,-0.35 -2.23000005,-0.97 z"
     inkscape:connector-curvature="0"
     style="fill:#fc5185;fill-opacity:1" />
</svg>
